<svg width="125" height="39" viewBox="0 0 125 39" fill="none" xmlns="http://www.w3.org/2000/svg">
<path d="M38.1077 19.3487C35.9088 17.86 33.3181 17.0561 30.6627 17.0383H30.4653C30.3956 17.0383 30.3258 17.0383 30.2561 17.0383C30.1404 17.0383 30.0264 17.0383 29.9158 17.0502H29.7848C29.727 17.0502 29.6691 17.0502 29.6147 17.0621C29.5602 17.074 29.4888 17.0621 29.4258 17.0757L29.1111 17.1047L28.9137 17.1285L28.7436 17.1506C28.684 17.1506 28.6245 17.1659 28.5735 17.1761C28.5224 17.1863 28.4595 17.1914 28.4033 17.2033C28.3472 17.2153 28.2672 17.2238 28.1992 17.2374C28.0529 17.2629 27.9048 17.2935 27.7585 17.3241C27.6718 17.3412 27.5884 17.3599 27.5033 17.3803C27.3553 17.4143 27.2056 17.4517 27.0559 17.4926L26.787 17.5674L26.3566 17.6984L26.1014 17.7869L25.8428 17.8805L25.8105 17.8924C25.7186 17.9247 25.6301 17.9604 25.54 17.9962L25.1691 18.1493C24.9224 18.2582 24.6791 18.3722 24.4409 18.4896C24.0581 18.6835 23.677 18.903 23.3044 19.1412C22.1906 18.3507 21.2141 17.3828 20.4138 16.2761L20.4019 16.2591L20.305 16.1111L19.7946 15.3302C19.6687 15.1158 19.5513 14.8997 19.439 14.6769C18.6743 13.1884 18.2226 11.559 18.1119 9.8893C18.0983 9.71916 18.0898 9.54903 18.0864 9.3789C18.083 9.20876 18.0864 9.07266 18.0864 8.91784C18.1025 6.73544 18.6922 4.59565 19.7963 2.71306C20.9401 4.65547 21.5324 6.87306 21.5095 9.1271C21.5095 9.22408 21.5095 9.31935 21.5095 9.41463C21.5095 9.44015 21.5095 9.46737 21.5095 9.49289C21.5095 9.60347 21.4993 9.71236 21.4925 9.82124C21.4925 9.85527 21.4925 9.8893 21.4925 9.92333L21.4772 10.1241C21.4772 10.1819 21.467 10.2398 21.4602 10.2942C21.4602 10.3861 21.4414 10.4763 21.4295 10.5664C21.4303 10.5692 21.4303 10.5722 21.4295 10.5749C21.4159 10.6923 21.3989 10.8097 21.3819 10.9288C21.3649 11.0479 21.3445 11.1653 21.3224 11.2844C21.3002 11.4035 21.2781 11.5192 21.2509 11.6366C21.2067 11.8458 21.1556 12.0568 21.0995 12.2678C21.0842 12.3239 21.0706 12.3801 21.0536 12.4379C21.0365 12.4957 21.0178 12.5621 20.9991 12.625C20.9549 12.7731 20.9072 12.9194 20.8579 13.0657C20.8273 13.1542 20.7967 13.2358 20.7643 13.3243C20.7643 13.3396 20.7524 13.3549 20.7473 13.3702C20.7167 13.4587 20.681 13.5404 20.6469 13.6322C20.5942 13.7632 20.5397 13.8959 20.4768 14.0269C20.3968 14.2073 20.3067 14.3825 20.225 14.5595C20.339 14.7534 20.5346 15.109 20.7354 15.4186C20.7711 15.4748 20.8086 15.5292 20.8443 15.5888L20.8596 15.5616C20.9345 15.4271 21.0076 15.2893 21.0774 15.1532C21.8731 13.5997 22.3552 11.9047 22.4963 10.1649C22.4963 10.0662 22.5116 9.96586 22.5184 9.86718C22.5337 9.62559 22.5422 9.384 22.5439 9.14071V9.11689C22.5658 6.39421 21.7588 3.72931 20.2301 1.47619L19.8048 0.850098L19.3828 1.47449C17.895 3.67384 17.0911 6.26425 17.0724 8.91954C17.0724 8.97058 17.0724 9.01991 17.0724 9.07095C17.0724 9.41916 17.0866 9.76737 17.115 10.1156C17.2559 11.8725 17.7403 13.5846 18.5407 15.1549C18.5883 15.2519 18.6394 15.3472 18.6921 15.4425L18.7482 15.5445C18.7925 15.6245 18.8384 15.7147 18.8843 15.7844C18.9116 15.8338 18.9388 15.8814 18.9677 15.9273C19.029 16.0345 19.0936 16.1366 19.16 16.2421L19.1889 16.2897C18.6862 16.991 18.1127 17.6386 17.4773 18.2224C17.1067 18.5617 16.7158 18.8781 16.3068 19.1701C16.0516 19.0068 15.7941 18.8536 15.5344 18.7107C15.4136 18.6444 15.2928 18.5797 15.1703 18.5185C15.0836 18.4725 15.0002 18.43 14.9066 18.3875L14.6395 18.2633L14.3707 18.1442C14.2805 18.1051 14.2006 18.0676 14.1019 18.0319C12.7962 17.5018 11.4144 17.1831 10.0085 17.0877C9.72775 17.0672 9.44192 17.0553 9.1578 17.0536H8.95705C6.29416 17.0658 3.69522 17.8707 1.49159 19.3657L0.867188 19.7877L1.49159 20.213C3.68361 21.6978 6.26534 22.5022 8.91282 22.5251H8.93664C9.2769 22.5251 9.61717 22.5166 9.95744 22.4945C11.7735 22.3708 13.546 21.8818 15.1686 21.0569C15.3013 20.9888 15.434 20.9191 15.565 20.8459L14.6157 20.1892C13.0982 20.9556 11.4375 21.3971 9.73966 21.4856C9.56953 21.4958 9.39939 21.5009 9.22926 21.5026H8.94172C6.75166 21.4851 4.60519 20.8888 2.71995 19.7741C4.66355 18.6318 6.8814 18.0402 9.13568 18.0625H9.24286C9.413 18.0625 9.58313 18.0625 9.75327 18.0812C11.2293 18.1617 12.6787 18.5075 14.0321 19.102C14.2516 19.199 14.4711 19.3028 14.6854 19.4117C14.9049 19.524 15.121 19.6431 15.3371 19.769L16.2864 20.3865C17.2037 21.0425 18.0273 21.8204 18.7346 22.6987L19.3505 21.8378C18.7093 21.073 17.9833 20.3835 17.1864 19.7826L17.1711 19.769L17.1864 19.7554C17.519 19.5057 17.8386 19.2394 18.1443 18.9574C18.7398 18.4117 19.2847 17.8132 19.7724 17.1693L19.7861 17.188L19.798 17.1693C20.5409 18.1513 21.4157 19.0261 22.3976 19.769C21.412 20.5169 20.5334 21.3961 19.7861 22.3822L19.1702 23.2686C18.933 23.6359 18.7149 24.0153 18.5169 24.4051C17.6868 26.0252 17.1976 27.7981 17.0792 29.6146C17.0639 29.88 17.0537 30.1471 17.0503 30.4176V30.6626C17.0722 33.31 17.8773 35.8916 19.3641 38.0821L19.7861 38.7065L20.2114 38.0821C21.6993 35.8833 22.5037 33.2936 22.5235 30.6388V30.6184C22.5235 30.2679 22.5133 29.9157 22.4861 29.567C22.3595 27.7669 21.8717 26.0109 21.0518 24.4034C20.8549 24.0156 20.6386 23.638 20.4036 23.272C21.1969 22.1662 22.1666 21.1983 23.2738 20.407C23.2813 20.4007 23.2893 20.395 23.2976 20.3899L23.3265 20.3712L23.4694 20.2777L24.2453 19.7673C24.4596 19.6397 24.6774 19.5206 24.8952 19.41C26.3789 18.6556 27.9986 18.2061 29.6589 18.088C29.829 18.0744 29.9992 18.0659 30.1693 18.0591C30.3394 18.0523 30.496 18.0591 30.6593 18.0591C32.8445 18.0738 34.9871 18.6648 36.8709 19.7724C34.9266 20.9164 32.7075 21.5092 30.4517 21.4873C30.365 21.4873 30.2816 21.4873 30.1931 21.4873H30.0859L29.7644 21.472H29.6861C29.6113 21.472 29.5381 21.4618 29.4649 21.455C29.3918 21.4482 29.3391 21.4465 29.2778 21.438L29.0243 21.409H28.9937C28.878 21.3954 28.764 21.3801 28.6534 21.3614C28.5428 21.3427 28.4169 21.324 28.2995 21.3036L27.9491 21.2338C27.7381 21.1879 27.5254 21.1368 27.3162 21.0807L27.146 21.0331C27.0831 21.0177 27.0201 20.9973 26.9572 20.9786C26.8075 20.9327 26.6594 20.8867 26.5131 20.8357L26.3039 20.7608C26.0504 20.6707 25.802 20.5703 25.5553 20.4614C25.3851 20.3831 25.198 20.2998 25.0211 20.2096C24.7256 20.359 24.4413 20.5296 24.1704 20.72C24.1176 20.7557 24.0683 20.7915 24.019 20.8289C24.1585 20.9089 24.3014 20.9837 24.4426 21.0569C25.7203 21.7136 27.0966 22.1572 28.5173 22.3703C28.8338 22.4179 29.157 22.4537 29.4803 22.4792C29.8035 22.5047 30.1285 22.5217 30.4568 22.5251H30.5232C33.2321 22.5396 35.8818 21.7329 38.1231 20.2113L38.7475 19.7877L38.1077 19.3487ZM21.4857 29.8051C21.4976 29.9753 21.5027 30.1454 21.5044 30.3155C21.5044 30.421 21.5044 30.5282 21.5044 30.6337C21.4889 32.8185 20.8974 34.9605 19.7894 36.8436C18.6469 34.9006 18.0547 32.6834 18.0762 30.4295C18.0762 30.4023 18.0762 30.3768 18.0762 30.3496C18.0762 30.1794 18.0762 30.0093 18.0915 29.8392C18.1675 28.3537 18.5134 26.8946 19.1123 25.5331C19.2093 25.3119 19.3131 25.0958 19.4237 24.8764C19.5343 24.6569 19.6534 24.4374 19.7793 24.2248C19.9052 24.4391 20.0259 24.6552 20.1382 24.8764C20.9312 26.4058 21.3927 28.0853 21.4925 29.8051H21.4857Z" fill="#21CAC8"/>
<path d="M49.0693 8.8122C49.6071 8.36589 50.1021 7.87035 50.5478 7.33203C51.0148 7.91224 51.543 8.44044 52.1232 8.90747C51.6024 9.37206 51.1083 9.86567 50.6431 10.3859C50.1789 9.80428 49.651 9.27642 49.0693 8.8122ZM49.7379 13.7291H51.4546V27.042H49.7379V13.7291Z" fill="#4F4F4F"/>
<path d="M60.2607 15.0445C57.5777 15.0445 55.5106 17.2171 55.5106 20.1485V27.0424H53.7939V13.7294H55.2163L55.4834 16.0364C56.5841 14.4269 58.4352 13.4351 60.635 13.4351C63.8284 13.4351 66.1082 15.7149 66.1082 19.4986V27.0424H64.3916V19.8474C64.3916 16.6812 62.8621 15.0445 60.2607 15.0445Z" fill="#4F4F4F"/>
<path d="M68.2554 23.0663H69.9448C70.1337 24.783 71.6087 25.7493 74.1046 25.7493C76.5715 25.7493 77.5923 24.7575 77.5923 23.4423C77.5923 21.6985 75.794 21.3497 73.6792 20.9465C71.2974 20.4905 68.6348 19.9257 68.6348 17.1099C68.6348 15.1245 70.3531 13.4351 73.7864 13.4351C77.0326 13.4351 78.7765 15.0717 78.9925 17.2988H77.3558C77.167 15.8765 75.9335 15.0173 73.7337 15.0173C71.3178 15.0173 70.3531 15.9837 70.3531 17.0827C70.3531 18.6667 72.1242 19.0427 74.1352 19.417C76.5766 19.9001 79.3141 20.4378 79.3141 23.3879C79.3141 25.535 77.5157 27.3588 74.0008 27.3588C70.5079 27.3588 68.4153 25.6694 68.2554 23.0663Z" fill="#4F4F4F"/>
<path d="M83.3631 24.8302V32.2089H81.6465V13.729H83.0671L83.3359 15.956C84.0021 15.154 84.8391 14.511 85.7858 14.0742C86.7325 13.6373 87.7649 13.4177 88.8074 13.4313C92.7783 13.4313 95.7574 16.4086 95.7574 20.3795C95.7574 24.3504 92.7783 27.355 88.8074 27.355C87.7688 27.3685 86.7404 27.1487 85.7982 26.7117C84.8559 26.2747 84.0237 25.6317 83.3631 24.8302ZM88.6747 25.7421C91.8137 25.7421 94.0407 23.5151 94.0407 20.3761C94.0407 17.2371 91.8137 15.0101 88.6747 15.0101C85.5085 15.0101 83.2832 17.2371 83.2832 20.3761C83.2832 23.5151 85.5051 25.7489 88.6713 25.7489L88.6747 25.7421Z" fill="#4F4F4F"/>
<path d="M98.1955 13.7291H99.9121V27.042H98.1955V13.7291ZM97.5269 8.8122C98.0648 8.36547 98.5603 7.86997 99.007 7.33203C99.473 7.91261 100.001 8.44086 100.581 8.90747C100.061 9.37212 99.5669 9.86572 99.1023 10.3859C98.6375 9.80425 98.109 9.27639 97.5269 8.8122Z" fill="#4F4F4F"/>
<path d="M102.449 13.7295H103.871L104.14 16.0637C105.161 14.5614 106.743 13.7295 108.888 13.7295H110.096V15.4206H108.754C105.884 15.4206 104.16 17.2445 104.16 20.3545V27.0424H102.442L102.449 13.7295Z" fill="#4F4F4F"/>
<path d="M110.338 20.3833C110.338 16.3852 113.315 13.4351 117.259 13.4351C121.284 13.4351 124.209 16.3052 124.209 20.3561C124.209 20.5977 124.182 20.7865 124.182 20.9737H112.082C112.351 23.8183 114.443 25.7493 117.421 25.7493C119.462 25.7493 121.015 24.9446 121.982 23.3079H123.78C122.625 25.8038 120.425 27.3588 117.393 27.3588C113.262 27.3588 110.338 24.3542 110.338 20.3833ZM122.438 19.4714C122.143 16.8956 120.238 15.0173 117.259 15.0173C114.55 15.0173 112.51 16.8156 112.109 19.4714H122.438Z" fill="#4F4F4F"/>
</svg>
