<svg width="25" height="25" viewBox="0 0 25 25" fill="none" xmlns="http://www.w3.org/2000/svg">
<path d="M20.5 11C20.2348 11 19.9804 11.1054 19.7929 11.2929C19.6054 11.4804 19.5 11.7348 19.5 12V19C19.5 19.2652 19.3946 19.5196 19.2071 19.7071C19.0196 19.8946 18.7652 20 18.5 20H4.5C4.23478 20 3.98043 19.8946 3.79289 19.7071C3.60536 19.5196 3.5 19.2652 3.5 19V11C3.5 10.7348 3.60536 10.4804 3.79289 10.2929C3.98043 10.1054 4.23478 10 4.5 10H6.5C6.71807 10.0114 6.93386 9.95107 7.11443 9.82829C7.295 9.7055 7.43042 9.52698 7.5 9.32L8.04 7.68C8.10709 7.48138 8.2349 7.30887 8.40537 7.18684C8.57584 7.06482 8.78036 6.99946 8.99 7H14.5C14.7652 7 15.0196 6.89464 15.2071 6.70711C15.3946 6.51957 15.5 6.26522 15.5 6C15.5 5.73478 15.3946 5.48043 15.2071 5.29289C15.0196 5.10536 14.7652 5 14.5 5H8.94C8.31155 5.00118 7.69933 5.19968 7.18977 5.56751C6.6802 5.93533 6.29901 6.45389 6.1 7.05L5.78 8.05H4.5C3.70435 8.05 2.94129 8.36607 2.37868 8.92868C1.81607 9.49129 1.5 10.2544 1.5 11.05V19.05C1.5 19.8456 1.81607 20.6087 2.37868 21.1713C2.94129 21.7339 3.70435 22.05 4.5 22.05H18.5C19.2956 22.05 20.0587 21.7339 20.6213 21.1713C21.1839 20.6087 21.5 19.8456 21.5 19.05V12.05C21.5068 11.9145 21.4859 11.7791 21.4387 11.6519C21.3915 11.5248 21.3189 11.4086 21.2254 11.3103C21.1318 11.2121 21.0193 11.134 20.8946 11.0806C20.7699 11.0273 20.6356 10.9998 20.5 11ZM11.5 10C10.7089 10 9.93552 10.2346 9.27772 10.6741C8.61992 11.1136 8.10723 11.7384 7.80448 12.4693C7.50173 13.2002 7.42252 14.0044 7.57686 14.7804C7.7312 15.5563 8.11216 16.269 8.67157 16.8284C9.23098 17.3878 9.94372 17.7688 10.7196 17.9231C11.4956 18.0775 12.2998 17.9983 13.0307 17.6955C13.7616 17.3928 14.3864 16.8801 14.8259 16.2223C15.2654 15.5645 15.5 14.7911 15.5 14C15.5 12.9391 15.0786 11.9217 14.3284 11.1716C13.5783 10.4214 12.5609 10 11.5 10ZM11.5 16C11.1044 16 10.7178 15.8827 10.3889 15.6629C10.06 15.4432 9.80362 15.1308 9.65224 14.7654C9.50087 14.3999 9.46126 13.9978 9.53843 13.6098C9.6156 13.2219 9.80608 12.8655 10.0858 12.5858C10.3655 12.3061 10.7219 12.1156 11.1098 12.0384C11.4978 11.9613 11.8999 12.0009 12.2654 12.1522C12.6308 12.3036 12.9432 12.56 13.1629 12.8889C13.3827 13.2178 13.5 13.6044 13.5 14C13.5 14.5304 13.2893 15.0391 12.9142 15.4142C12.5391 15.7893 12.0304 16 11.5 16ZM22.5 5H21.5V4C21.5 3.73478 21.3946 3.48043 21.2071 3.29289C21.0196 3.10536 20.7652 3 20.5 3C20.2348 3 19.9804 3.10536 19.7929 3.29289C19.6054 3.48043 19.5 3.73478 19.5 4V5H18.5C18.2348 5 17.9804 5.10536 17.7929 5.29289C17.6054 5.48043 17.5 5.73478 17.5 6C17.5 6.26522 17.6054 6.51957 17.7929 6.70711C17.9804 6.89464 18.2348 7 18.5 7H19.5V8C19.5 8.26522 19.6054 8.51957 19.7929 8.70711C19.9804 8.89464 20.2348 9 20.5 9C20.7652 9 21.0196 8.89464 21.2071 8.70711C21.3946 8.51957 21.5 8.26522 21.5 8V7H22.5C22.7652 7 23.0196 6.89464 23.2071 6.70711C23.3946 6.51957 23.5 6.26522 23.5 6C23.5 5.73478 23.3946 5.48043 23.2071 5.29289C23.0196 5.10536 22.7652 5 22.5 5Z" fill="white"/>
</svg>
