<svg width="43" height="43" viewBox="0 0 43 43" fill="none" xmlns="http://www.w3.org/2000/svg">
<rect width="43" height="43" rx="21.5" fill="#E5F3F4"/>
<path d="M29.3201 14.7916C28.3042 13.7731 26.9576 13.1515 25.5235 13.039C24.0894 12.9265 22.6623 13.3306 21.5001 14.1783C20.2808 13.2714 18.7631 12.8601 17.2527 13.0274C15.7423 13.1946 14.3514 13.928 13.36 15.0797C12.3686 16.2314 11.8505 17.716 11.9099 19.2345C11.9693 20.7529 12.6018 22.1925 13.6801 23.2633L19.6314 29.2241C20.1297 29.7146 20.8009 29.9895 21.5001 29.9895C22.1993 29.9895 22.8705 29.7146 23.3689 29.2241L29.3201 23.2633C30.439 22.1375 31.0671 20.6147 31.0671 19.0275C31.0671 17.4402 30.439 15.9174 29.3201 14.7916ZM27.9688 21.9408L22.0176 27.892C21.9499 27.9604 21.8693 28.0147 21.7805 28.0517C21.6916 28.0888 21.5963 28.1079 21.5001 28.1079C21.4039 28.1079 21.3086 28.0888 21.2197 28.0517C21.1309 28.0147 21.0503 27.9604 20.9826 27.892L15.0314 21.912C14.2798 21.1438 13.8589 20.1118 13.8589 19.037C13.8589 17.9623 14.2798 16.9303 15.0314 16.162C15.7972 15.4059 16.8301 14.9819 17.9064 14.9819C18.9826 14.9819 20.0155 15.4059 20.7814 16.162C20.8704 16.2519 20.9764 16.3232 21.0932 16.3718C21.21 16.4205 21.3353 16.4455 21.4618 16.4455C21.5883 16.4455 21.7135 16.4205 21.8303 16.3718C21.9471 16.3232 22.0531 16.2519 22.1422 16.162C22.908 15.4059 23.941 14.9819 25.0172 14.9819C26.0934 14.9819 27.1263 15.4059 27.8922 16.162C28.6541 16.9202 29.0887 17.9466 29.1031 19.0214C29.1174 20.0962 28.7103 21.1338 27.9688 21.912V21.9408Z" fill="#21CAC8"/>
</svg>
