<svg width="43" height="43" viewBox="0 0 43 43" fill="none" xmlns="http://www.w3.org/2000/svg">
<rect width="43" height="43" rx="21.5" fill="#E5F3F4"/>
<path d="M21.7877 21.7108C22.299 21.2682 22.7091 20.7207 22.9903 20.1056C23.2714 19.4905 23.4168 18.8221 23.4168 18.1458C23.4168 16.875 22.912 15.6562 22.0134 14.7576C21.1148 13.859 19.896 13.3541 18.6252 13.3541C17.3543 13.3541 16.1356 13.859 15.2369 14.7576C14.3383 15.6562 13.8335 16.875 13.8335 18.1458C13.8335 18.8221 13.979 19.4905 14.2601 20.1056C14.5412 20.7207 14.9513 21.2682 15.4627 21.7108C14.1211 22.3183 12.9829 23.2993 12.1842 24.5365C11.3854 25.7737 10.9599 27.2148 10.9585 28.6875C10.9585 28.9416 11.0595 29.1854 11.2392 29.3651C11.4189 29.5448 11.6627 29.6458 11.9168 29.6458C12.171 29.6458 12.4148 29.5448 12.5945 29.3651C12.7742 29.1854 12.8752 28.9416 12.8752 28.6875C12.8752 27.1625 13.481 25.6999 14.5593 24.6216C15.6376 23.5433 17.1002 22.9375 18.6252 22.9375C20.1502 22.9375 21.6127 23.5433 22.691 24.6216C23.7694 25.6999 24.3752 27.1625 24.3752 28.6875C24.3752 28.9416 24.4761 29.1854 24.6559 29.3651C24.8356 29.5448 25.0793 29.6458 25.3335 29.6458C25.5877 29.6458 25.8314 29.5448 26.0111 29.3651C26.1909 29.1854 26.2918 28.9416 26.2918 28.6875C26.2904 27.2148 25.8649 25.7737 25.0661 24.5365C24.2674 23.2993 23.1292 22.3183 21.7877 21.7108ZM18.6252 21.0208C18.0565 21.0208 17.5007 20.8522 17.0279 20.5363C16.5551 20.2204 16.1866 19.7713 15.969 19.246C15.7514 18.7207 15.6945 18.1426 15.8054 17.5849C15.9163 17.0272 16.1902 16.5149 16.5922 16.1129C16.9943 15.7108 17.5066 15.437 18.0643 15.326C18.622 15.2151 19.2 15.272 19.7254 15.4896C20.2507 15.7072 20.6997 16.0757 21.0156 16.5485C21.3315 17.0213 21.5002 17.5772 21.5002 18.1458C21.5002 18.9083 21.1973 19.6396 20.6581 20.1787C20.1189 20.7179 19.3877 21.0208 18.6252 21.0208ZM27.9593 21.3275C28.5726 20.6368 28.9733 19.7836 29.113 18.8706C29.2527 17.9576 29.1255 17.0237 28.7469 16.1812C28.3682 15.3388 27.754 14.6237 26.9784 14.1222C26.2028 13.6206 25.2988 13.3539 24.3752 13.3541C24.121 13.3541 23.8772 13.4551 23.6975 13.6348C23.5178 13.8145 23.4168 14.0583 23.4168 14.3125C23.4168 14.5666 23.5178 14.8104 23.6975 14.9901C23.8772 15.1698 24.121 15.2708 24.3752 15.2708C25.1377 15.2708 25.8689 15.5737 26.4081 16.1129C26.9473 16.652 27.2502 17.3833 27.2502 18.1458C27.2488 18.6491 27.1153 19.1433 26.8631 19.5789C26.6108 20.0145 26.2486 20.3762 25.8127 20.6279C25.6706 20.7098 25.5519 20.8269 25.468 20.9678C25.3841 21.1088 25.3378 21.2689 25.3335 21.4329C25.3295 21.5956 25.367 21.7566 25.4424 21.9008C25.5179 22.045 25.6288 22.1676 25.7647 22.257L26.1385 22.5062L26.2631 22.5733C27.4182 23.1212 28.3928 23.9878 29.0719 25.071C29.7511 26.1542 30.1065 27.409 30.0964 28.6875C30.0964 28.9416 30.1974 29.1854 30.3771 29.3651C30.5568 29.5448 30.8006 29.6458 31.0547 29.6458C31.3089 29.6458 31.5527 29.5448 31.7324 29.3651C31.9121 29.1854 32.0131 28.9416 32.0131 28.6875C32.0209 27.2168 31.6526 25.7686 30.9431 24.4804C30.2336 23.1923 29.2065 22.1069 27.9593 21.3275Z" fill="#21CAC8"/>
</svg>
