<svg width="43" height="43" viewBox="0 0 43 43" fill="none" xmlns="http://www.w3.org/2000/svg">
<rect width="43" height="43" rx="21.5" fill="#E5F3F4"/>
<path d="M30.5083 26.3888H11.3416C11.0875 26.3888 10.8437 26.4897 10.664 26.6694C10.4843 26.8492 10.3833 27.0929 10.3833 27.3471C10.3833 27.6013 10.4843 27.845 10.664 28.0247C10.8437 28.2045 11.0875 28.3054 11.3416 28.3054H30.5083C30.7625 28.3054 31.0062 28.2045 31.1859 28.0247C31.3657 27.845 31.4666 27.6013 31.4666 27.3471C31.4666 27.0929 31.3657 26.8492 31.1859 26.6694C31.0062 26.4897 30.7625 26.3888 30.5083 26.3888ZM30.5083 30.2221H11.3416C11.0875 30.2221 10.8437 30.3231 10.664 30.5028C10.4843 30.6825 10.3833 30.9263 10.3833 31.1804C10.3833 31.4346 10.4843 31.6783 10.664 31.8581C10.8437 32.0378 11.0875 32.1388 11.3416 32.1388H30.5083C30.7625 32.1388 31.0062 32.0378 31.1859 31.8581C31.3657 31.6783 31.4666 31.4346 31.4666 31.1804C31.4666 30.9263 31.3657 30.6825 31.1859 30.5028C31.0062 30.3231 30.7625 30.2221 30.5083 30.2221ZM15.175 16.8054C14.9854 16.8054 14.8001 16.8616 14.6425 16.9669C14.4849 17.0722 14.3621 17.2219 14.2896 17.397C14.217 17.5721 14.1981 17.7648 14.235 17.9507C14.272 18.1366 14.3633 18.3074 14.4973 18.4414C14.6313 18.5754 14.8021 18.6667 14.988 18.7037C15.1739 18.7406 15.3666 18.7217 15.5417 18.6491C15.7168 18.5766 15.8665 18.4538 15.9718 18.2962C16.0771 18.1386 16.1333 17.9533 16.1333 17.7638C16.1333 17.5096 16.0323 17.2658 15.8526 17.0861C15.6729 16.9064 15.4291 16.8054 15.175 16.8054ZM28.5916 11.0554H13.2583C12.4958 11.0554 11.7645 11.3583 11.2254 11.8975C10.6862 12.4367 10.3833 13.1679 10.3833 13.9304V21.5971C10.3833 22.3596 10.6862 23.0909 11.2254 23.63C11.7645 24.1692 12.4958 24.4721 13.2583 24.4721H28.5916C29.3541 24.4721 30.0854 24.1692 30.6246 23.63C31.1637 23.0909 31.4666 22.3596 31.4666 21.5971V13.9304C31.4666 13.1679 31.1637 12.4367 30.6246 11.8975C30.0854 11.3583 29.3541 11.0554 28.5916 11.0554ZM29.55 21.5971C29.55 21.8513 29.449 22.095 29.2693 22.2747C29.0896 22.4545 28.8458 22.5554 28.5916 22.5554H13.2583C13.0041 22.5554 12.7604 22.4545 12.5807 22.2747C12.4009 22.095 12.3 21.8513 12.3 21.5971V13.9304C12.3 13.6763 12.4009 13.4325 12.5807 13.2528C12.7604 13.0731 13.0041 12.9721 13.2583 12.9721H28.5916C28.8458 12.9721 29.0896 13.0731 29.2693 13.2528C29.449 13.4325 29.55 13.6763 29.55 13.9304V21.5971ZM20.925 14.8888C20.3563 14.8888 19.8005 15.0574 19.3277 15.3733C18.8549 15.6892 18.4864 16.1382 18.2688 16.6635C18.0512 17.1889 17.9943 17.7669 18.1052 18.3246C18.2161 18.8823 18.49 19.3946 18.892 19.7967C19.2941 20.1988 19.8064 20.4726 20.3641 20.5835C20.9218 20.6944 21.4998 20.6375 22.0252 20.4199C22.5505 20.2023 22.9995 19.8338 23.3154 19.361C23.6314 18.8882 23.8 18.3324 23.8 17.7638C23.8 17.0013 23.4971 16.27 22.9579 15.7308C22.4187 15.1917 21.6875 14.8888 20.925 14.8888ZM20.925 18.7221C20.7354 18.7221 20.5501 18.6659 20.3925 18.5606C20.2349 18.4553 20.1121 18.3056 20.0396 18.1305C19.967 17.9554 19.9481 17.7627 19.985 17.5768C20.022 17.3909 20.1133 17.2201 20.2473 17.0861C20.3813 16.9521 20.5521 16.8608 20.738 16.8238C20.9239 16.7869 21.1166 16.8058 21.2917 16.8784C21.4668 16.9509 21.6165 17.0737 21.7218 17.2313C21.8271 17.3889 21.8833 17.5742 21.8833 17.7638C21.8833 18.0179 21.7823 18.2617 21.6026 18.4414C21.4229 18.6211 21.1791 18.7221 20.925 18.7221ZM26.675 16.8054C26.4854 16.8054 26.3001 16.8616 26.1425 16.9669C25.9849 17.0722 25.8621 17.2219 25.7896 17.397C25.717 17.5721 25.6981 17.7648 25.735 17.9507C25.772 18.1366 25.8633 18.3074 25.9973 18.4414C26.1313 18.5754 26.3021 18.6667 26.488 18.7037C26.6739 18.7406 26.8666 18.7217 27.0417 18.6491C27.2168 18.5766 27.3665 18.4538 27.4718 18.2962C27.5771 18.1386 27.6333 17.9533 27.6333 17.7638C27.6333 17.5096 27.5323 17.2658 27.3526 17.0861C27.1729 16.9064 26.9291 16.8054 26.675 16.8054Z" fill="#21CAC8"/>
</svg>
