<svg width="25" height="25" viewBox="0 0 25 25" fill="none" xmlns="http://www.w3.org/2000/svg">
<rect x="0.309082" y="0.0615234" width="24" height="24" rx="5" fill="#21CAC8"/>
<path d="M7.35918 14.8967C7.54655 15.083 7.8 15.1875 8.06418 15.1875C8.32837 15.1875 8.58182 15.083 8.76918 14.8967L12.3592 11.3567L15.8992 14.8967C16.0865 15.083 16.34 15.1875 16.6042 15.1875C16.8684 15.1875 17.1218 15.083 17.3092 14.8967C17.4029 14.8037 17.4773 14.6931 17.5281 14.5713C17.5788 14.4494 17.605 14.3187 17.605 14.1867C17.605 14.0547 17.5788 13.924 17.5281 13.8021C17.4773 13.6803 17.4029 13.5697 17.3092 13.4767L13.0692 9.23671C12.9762 9.14298 12.8656 9.06858 12.7438 9.01782C12.6219 8.96705 12.4912 8.94091 12.3592 8.94091C12.2272 8.94091 12.0965 8.96705 11.9746 9.01782C11.8527 9.06858 11.7421 9.14298 11.6492 9.23671L7.35918 13.4767C7.26545 13.5697 7.19106 13.6803 7.14029 13.8021C7.08952 13.924 7.06338 14.0547 7.06338 14.1867C7.06338 14.3187 7.08952 14.4494 7.14029 14.5713C7.19106 14.6931 7.26545 14.8037 7.35918 14.8967Z" fill="white"/>
</svg>
