<svg width="25" height="25" viewBox="0 0 25 25" fill="none" xmlns="http://www.w3.org/2000/svg">
<rect x="0.309082" y="0.0615234" width="24" height="24" rx="5" fill="#21CAC8"/>
<path d="M17.3093 9.23147C17.1219 9.04522 16.8685 8.94067 16.6043 8.94067C16.3401 8.94067 16.0866 9.04522 15.8993 9.23147L12.3093 12.7715L8.76927 9.23147C8.58191 9.04522 8.32846 8.94067 8.06427 8.94067C7.80009 8.94067 7.54664 9.04522 7.35927 9.23147C7.26555 9.32443 7.19115 9.43503 7.14038 9.55689C7.08961 9.67875 7.06348 9.80945 7.06348 9.94147C7.06348 10.0735 7.08961 10.2042 7.14038 10.326C7.19115 10.4479 7.26555 10.5585 7.35927 10.6515L11.5993 14.8915C11.6922 14.9852 11.8028 15.0596 11.9247 15.1104C12.0466 15.1611 12.1773 15.1873 12.3093 15.1873C12.4413 15.1873 12.572 15.1611 12.6939 15.1104C12.8157 15.0596 12.9263 14.9852 13.0193 14.8915L17.3093 10.6515C17.403 10.5585 17.4774 10.4479 17.5282 10.326C17.5789 10.2042 17.6051 10.0735 17.6051 9.94147C17.6051 9.80945 17.5789 9.67875 17.5282 9.55689C17.4774 9.43503 17.403 9.32443 17.3093 9.23147Z" fill="white"/>
</svg>
