<svg width="40" height="41" viewBox="0 0 40 41" fill="none" xmlns="http://www.w3.org/2000/svg">
<path d="M33.6 8.54927C31.8333 6.77795 29.4914 5.69683 26.9972 5.50122C24.5031 5.3056 22.0213 6.00838 20 7.4826C17.8794 5.90533 15.24 5.19012 12.6132 5.481C9.98643 5.77187 7.56741 7.04723 5.8433 9.05024C4.11919 11.0533 3.21805 13.6351 3.32135 16.276C3.42464 18.9168 4.52471 21.4204 6.40001 23.2826L16.75 33.6493C17.6167 34.5022 18.784 34.9803 20 34.9803C21.216 34.9803 22.3833 34.5022 23.25 33.6493L33.6 23.2826C35.546 21.3247 36.6382 18.6764 36.6382 15.9159C36.6382 13.1555 35.546 10.5072 33.6 8.54927Z" fill="white"/>
</svg>
