<svg width="75" height="75" viewBox="0 0 75 75" fill="none" xmlns="http://www.w3.org/2000/svg">
<path d="M45.2402 1.10467C39.9905 -0.204814 34.4664 -0.391932 29.0912 0.768464C28.6758 0.858141 28.4118 1.26759 28.5014 1.683C28.5911 2.09841 29.0006 2.36246 29.416 2.27278C34.5637 1.1615 39.8663 1.34474 44.9102 2.6089C56.9722 5.63207 67.0123 14.701 70.8363 26.5476C72.3152 31.1289 72.9434 36.0073 73.0692 41.1199C73.0797 41.5447 73.4326 41.8807 73.8574 41.8702C74.2822 41.8597 74.6182 41.5069 74.6077 41.082C74.4802 35.8993 73.8446 30.8954 72.3292 26.1628C68.358 13.7604 57.8644 4.25365 45.2402 1.10467Z" fill="white"/>
<path d="M25.1862 3.4328C25.5959 3.31978 25.8364 2.89605 25.7234 2.48638C25.6104 2.07671 25.1866 1.83622 24.777 1.94924C19.1556 3.50001 11.248 8.85846 6.36106 16.0169C6.35915 16.0197 6.35727 16.0225 6.3554 16.0253C2.06433 22.492 -0.625573 30.6185 0.125439 38.5042C0.126154 38.5117 0.126979 38.5192 0.127915 38.5266C0.307901 39.9665 0.610057 41.4038 0.912567 42.8427C1.54971 45.8733 2.18842 48.9113 1.69058 51.9977C1.6229 52.4172 1.90816 52.8122 2.32771 52.8799C2.74726 52.9475 3.14224 52.6623 3.20992 52.2427C3.73032 49.0165 3.08414 45.8697 2.43782 42.7222C2.13892 41.2666 1.83999 39.8108 1.65641 38.347C0.950068 30.8957 3.49427 23.1223 7.63495 16.8805C12.336 9.99675 19.9485 4.87773 25.1862 3.4328Z" fill="white"/>
<path d="M35.2839 5.15201C44.9448 4.56206 54.6037 8.50478 61.0905 16.0584C61.3674 16.3808 61.3305 16.8666 61.0081 17.1434C60.6856 17.4203 60.1998 17.3834 59.923 17.061C53.7543 9.87785 44.563 6.12576 35.373 6.6884C35.3698 6.68861 35.3665 6.68879 35.3632 6.68894C23.7414 7.25129 12.8576 15.1353 8.85424 26.1828C8.70946 26.5824 8.26818 26.7889 7.86863 26.6441C7.46908 26.4993 7.26255 26.0581 7.40734 25.6585C11.6247 14.0204 23.0534 5.74587 35.2839 5.15201Z" fill="white"/>
<path d="M63.4348 19.42C63.1978 19.0672 62.7197 18.9733 62.367 19.2102C62.0142 19.4472 61.9202 19.9253 62.1572 20.278C65.7532 25.6326 67.2401 31.4594 67.8279 38.374C67.8639 38.7975 68.2364 39.1116 68.6598 39.0756C69.0833 39.0396 69.3973 38.6671 69.3614 38.2437C68.7607 31.1779 67.2273 25.0672 63.4348 19.42Z" fill="white"/>
<path d="M68.8469 41.5106C69.2711 41.4841 69.6364 41.8065 69.6629 42.2306C69.9529 46.8707 69.9556 52.1204 69.4423 55.9999C69.3866 56.4212 68.9998 56.7175 68.5785 56.6618C68.1572 56.606 67.8609 56.2193 67.9166 55.798C68.4113 52.0588 68.414 46.9205 68.1269 42.3266C68.1004 41.9025 68.4228 41.5372 68.8469 41.5106Z" fill="white"/>
<path d="M7.69224 29.9099C7.79198 29.4968 7.53795 29.081 7.12484 28.9813C6.71174 28.8815 6.29599 29.1356 6.19625 29.5487C5.63146 31.8878 5.33827 34.2909 5.32665 36.6961C5.31468 39.1752 5.77693 41.5951 6.23936 44.0159C6.61764 45.9962 6.99604 47.9771 7.11507 49.9916C7.27142 52.6378 6.71482 55.2879 5.75299 57.8101C5.60157 58.2072 5.80071 58.6519 6.1978 58.8033C6.59488 58.9547 7.03953 58.7556 7.19096 58.3585C8.20762 55.6924 8.82388 52.8206 8.65136 49.9009C8.53315 47.9002 8.15478 45.9307 7.77656 43.9621C7.31504 41.5599 6.85375 39.1589 6.86561 36.7036C6.87665 34.4181 7.15529 32.1338 7.69224 29.9099Z" fill="white"/>
<path d="M27.8833 12.8102C28.0417 13.2046 27.8504 13.6527 27.456 13.811C19.4786 17.0147 13.488 24.2441 12.2659 32.7692C11.7553 36.3309 12.3069 39.8589 12.8584 43.386C13.169 45.3723 13.4795 47.3583 13.6002 49.3498C13.862 53.6682 13.3701 58.4116 10.5597 62.7273C10.3278 63.0835 9.85107 63.1842 9.49495 62.9523C9.13883 62.7203 9.03813 62.2437 9.27004 61.8875C11.8306 57.9554 12.3153 53.5879 12.064 49.443C11.9415 47.4223 11.633 45.4133 11.3246 43.4056C10.7713 39.8033 10.2186 36.2052 10.7425 32.5509C12.0474 23.4483 18.4274 15.7784 26.8825 12.3829C27.2769 12.2246 27.7249 12.4159 27.8833 12.8102Z" fill="white"/>
<path d="M54.8969 17.1912C48.6034 11.2966 39.4819 9.23933 31.192 11.0576C30.7768 11.1487 30.5141 11.559 30.6052 11.9741C30.6962 12.3892 31.1066 12.6519 31.5217 12.5609C39.3716 10.8391 47.9606 12.8032 53.8448 18.3144C58.8044 22.9596 61.6844 29.7188 62.4383 37.0932C62.4815 37.516 62.8593 37.8237 63.282 37.7805C63.7048 37.7372 64.0125 37.3595 63.9693 36.9367C63.1865 29.2793 60.1849 22.144 54.8969 17.1912Z" fill="white"/>
<path d="M63.8083 40.6013C64.231 40.5579 64.6089 40.8654 64.6524 41.2882C65.3831 48.4036 65.0682 56.0889 63.9649 63.5236C63.9026 63.944 63.5112 64.2342 63.0908 64.1718C62.6705 64.1095 62.3803 63.7181 62.4426 63.2977C63.5305 55.9664 63.8369 48.4116 63.1214 41.4454C63.078 41.0227 63.3855 40.6448 63.8083 40.6013Z" fill="white"/>
<path d="M36.981 15.6384C25.1895 15.6384 15.6089 25.0457 15.6089 36.6764C15.6089 37.9188 15.7191 39.1361 15.9293 40.3198C16.0036 40.7382 16.403 41.0172 16.8214 40.9429C17.2399 40.8686 17.5189 40.4692 17.4446 40.0507C17.25 38.9548 17.1478 37.8275 17.1478 36.6764C17.1478 25.9193 26.0156 17.1774 36.981 17.1774C41.9363 17.1774 46.4637 18.9634 49.9387 21.9145C50.2627 22.1896 50.7483 22.15 51.0233 21.8261C51.2984 21.5022 51.2589 21.0166 50.9349 20.7415C47.1902 17.5613 42.3122 15.6384 36.981 15.6384Z" fill="white"/>
<path d="M52.659 23.6105C52.9657 23.3163 53.4528 23.3265 53.747 23.6333C57.1429 27.1745 58.2299 32.7403 58.9492 37.4111C59.7594 42.6725 59.8831 47.8053 59.8831 50.1851C59.8831 50.6101 59.5385 50.9546 59.1136 50.9546C58.6886 50.9546 58.3441 50.6101 58.3441 50.1851C58.3441 47.8438 58.2215 42.7979 57.4281 37.6454C56.7604 33.3091 55.7978 27.9954 52.6362 24.6985C52.3421 24.3917 52.3523 23.9046 52.659 23.6105Z" fill="white"/>
<path d="M59.6877 54.592C59.7214 54.1683 59.4054 53.7975 58.9818 53.7637C58.5581 53.73 58.1873 54.046 58.1536 54.4697C57.7757 59.2095 57.2819 63.9442 56.2799 68.3179C56.185 68.7321 56.4439 69.1449 56.8582 69.2398C57.2724 69.3347 57.6852 69.0758 57.78 68.6615C58.8084 64.1726 59.3088 59.3445 59.6877 54.592Z" fill="white"/>
<path d="M17.1679 43.1519C17.5848 43.0698 17.9894 43.3412 18.0715 43.7582C19.6985 52.0203 18.5746 59.5258 14.266 66.1003C14.0331 66.4558 13.5561 66.5551 13.2007 66.3222C12.8452 66.0892 12.7459 65.6122 12.9788 65.2568C17.0327 59.0709 18.1237 51.9884 16.5616 44.0555C16.4795 43.6386 16.7509 43.234 17.1679 43.1519Z" fill="white"/>
<path d="M36.981 20.6451C29.3267 20.6451 21.8179 26.5701 21.0515 34.0166C20.7159 37.2766 21.1873 40.4878 21.6588 43.7003C22.0705 46.5054 22.4824 49.3115 22.3574 52.1519C22.0712 58.6527 20.1638 64.0189 16.8864 68.4386C16.6333 68.78 16.7048 69.2619 17.0462 69.515C17.3875 69.7682 17.8695 69.6966 18.1226 69.3553C21.5987 64.6676 23.5964 58.9995 23.8949 52.2196C24.0194 49.392 23.6062 46.5948 23.1933 43.7995C22.7212 40.6029 22.2494 37.4087 22.5823 34.1741C23.2556 27.6325 29.9888 22.1841 36.981 22.1841C40.2422 22.1841 48.68 23.9499 51.3641 32.6935C53.0461 38.1727 53.5049 45.5881 53.0975 52.7922C52.6901 59.9953 51.4229 66.8847 49.7189 71.3025C49.566 71.699 49.7634 72.1444 50.1599 72.2973C50.5564 72.4502 51.0018 72.2528 51.1548 71.8563C52.9375 67.2343 54.2216 60.1705 54.634 52.879C55.0463 45.5885 54.5931 37.9679 52.8353 32.2419C49.8559 22.5362 40.5163 20.6451 36.981 20.6451Z" fill="white"/>
<path d="M25.1392 66.1015C25.4952 66.3337 25.5955 66.8105 25.3633 67.1664C24.8862 67.898 24.4664 68.6635 24.0466 69.4289C23.6269 70.1944 23.207 70.96 22.7298 71.6918C22.4976 72.0477 22.0208 72.1481 21.6649 71.9159C21.3089 71.6837 21.2086 71.207 21.4407 70.851C21.9179 70.1194 22.3377 69.354 22.7574 68.5885C23.1772 67.823 23.5971 67.0574 24.0743 66.3257C24.3065 65.9697 24.7832 65.8694 25.1392 66.1015Z" fill="white"/>
<path d="M31.7281 28.6327C32.0813 28.3964 32.1761 27.9185 31.9399 27.5653C31.7036 27.2121 31.2257 27.1172 30.8725 27.3535C27.8254 29.3916 25.956 32.1941 25.956 36.2997C25.956 38.7444 26.3891 40.7427 26.8333 42.7922C27.498 45.8592 27.9488 48.9196 27.8678 52.0698C27.7694 55.8952 27.021 59.3907 25.5822 62.7207C25.4137 63.1109 25.5933 63.5638 25.9834 63.7323C26.3735 63.9009 26.8264 63.7213 26.995 63.3311C28.5162 59.8102 29.3031 56.1196 29.4063 52.1094C29.4905 48.8359 29.0271 45.6544 28.3377 42.4668C27.8925 40.4083 27.4949 38.5704 27.4949 36.2997C27.4949 32.782 29.0424 30.429 31.7281 28.6327Z" fill="white"/>
<path d="M34.7314 25.9291C37.9245 25.2781 41.3606 26.0825 43.8898 28.1296C48.4074 31.7861 49.0082 38.4543 49.495 43.8579L49.5198 44.1331C50.149 51.0985 49.4288 57.864 47.9781 64.6583C47.8893 65.0739 47.4805 65.3389 47.0649 65.2501C46.6493 65.1614 46.3843 64.7525 46.473 64.3369C47.902 57.6445 48.5985 51.04 47.9871 44.2716C47.9669 44.0475 47.9467 43.8202 47.9264 43.5902L47.9261 43.5869C47.4936 38.7038 46.952 32.588 42.9215 29.3258C40.7592 27.5757 37.7936 26.8754 35.0388 27.437C34.6224 27.5219 34.216 27.2532 34.1311 26.8368C34.0462 26.4204 34.315 26.014 34.7314 25.9291Z" fill="white"/>
<path d="M46.8905 68.4872C46.9954 68.0753 46.7465 67.6565 46.3347 67.5516C45.9228 67.4468 45.504 67.6956 45.3991 68.1075C44.9339 69.9347 44.2171 71.584 43.3083 73.1025C43.09 73.4672 43.2087 73.9397 43.5733 74.158C43.938 74.3762 44.4105 74.2575 44.6288 73.8929C45.6082 72.2565 46.3858 70.4697 46.8905 68.4872Z" fill="white"/>
<path d="M43.1277 57.3205C43.5497 57.3705 43.8513 57.7531 43.8014 58.1751C43.0747 64.3164 41.434 69.7936 38.8013 74.5442C38.5954 74.9159 38.127 75.0502 37.7553 74.8443C37.3836 74.6383 37.2493 74.1699 37.4552 73.7982C39.9747 69.2518 41.5655 63.9735 42.2731 57.9943C42.323 57.5722 42.7056 57.2706 43.1277 57.3205Z" fill="white"/>
<path d="M42.9691 35.8962C42.4356 33.0457 39.9891 30.8652 37.0191 30.8652C32.9972 30.8652 30.1755 34.9191 31.1699 38.6908C32.8524 45.3485 33.1286 51.765 31.9896 57.945L31.9888 57.9495C31.0004 63.4982 29.1023 68.4899 26.5132 72.7197C26.2913 73.0822 26.4053 73.5559 26.7677 73.7777C27.1302 73.9996 27.6039 73.8856 27.8258 73.5232C30.5208 69.1203 32.4834 63.9466 33.5035 58.2217C34.6861 51.8033 34.3931 45.1617 32.6609 38.3098L32.6588 38.3017C31.913 35.4803 33.9919 32.4042 37.0191 32.4042C39.2036 32.4042 41.0481 34.0113 41.4554 36.174C42.5755 42.6708 43.1588 48.6954 42.7435 53.8824C42.7095 54.3061 43.0254 54.677 43.4491 54.7109C43.8727 54.7448 44.2436 54.4289 44.2775 54.0053C44.7081 48.6288 44.1004 42.4559 42.971 35.9069C42.9704 35.9033 42.9698 35.8997 42.9691 35.8962Z" fill="white"/>
<path d="M34.723 69.2232C35.101 69.4175 35.2499 69.8814 35.0557 70.2594L33.0167 74.2272C32.8225 74.6052 32.3586 74.7542 31.9806 74.5599C31.6026 74.3657 31.4537 73.9018 31.6479 73.5238L33.6869 69.556C33.8811 69.178 34.345 69.029 34.723 69.2232Z" fill="white"/>
<path d="M37.5914 36.6381C37.4942 36.2244 37.08 35.9678 36.6663 36.065C36.2526 36.1622 35.996 36.5764 36.0932 36.9901C38.6881 48.0361 38.3317 57.7356 35.171 65.9982C35.0191 66.3952 35.2178 66.84 35.6147 66.9919C36.0117 67.1437 36.4565 66.945 36.6084 66.5481C39.904 57.9328 40.239 47.9084 37.5914 36.6381Z" fill="white"/>
</svg>
