<svg width="25" height="25" viewBox="0 0 25 25" fill="none" xmlns="http://www.w3.org/2000/svg">
<path d="M9.21 8.21002L11.5 5.91002V15.5C11.5 15.7652 11.6054 16.0196 11.7929 16.2071C11.9804 16.3947 12.2348 16.5 12.5 16.5C12.7652 16.5 13.0196 16.3947 13.2071 16.2071C13.3946 16.0196 13.5 15.7652 13.5 15.5V5.91002L15.79 8.21002C15.883 8.30375 15.9936 8.37814 16.1154 8.42891C16.2373 8.47968 16.368 8.50582 16.5 8.50582C16.632 8.50582 16.7627 8.47968 16.8846 8.42891C17.0064 8.37814 17.117 8.30375 17.21 8.21002C17.3037 8.11706 17.3781 8.00645 17.4289 7.8846C17.4797 7.76274 17.5058 7.63203 17.5058 7.50002C17.5058 7.36801 17.4797 7.2373 17.4289 7.11544C17.3781 6.99358 17.3037 6.88298 17.21 6.79002L13.21 2.79002C13.1149 2.69898 13.0028 2.62761 12.88 2.58002C12.6365 2.48 12.3635 2.48 12.12 2.58002C11.9972 2.62761 11.8851 2.69898 11.79 2.79002L7.79 6.79002C7.69676 6.88326 7.6228 6.99395 7.57234 7.11577C7.52188 7.23759 7.49591 7.36816 7.49591 7.50002C7.49591 7.63188 7.52188 7.76245 7.57234 7.88427C7.6228 8.00609 7.69676 8.11678 7.79 8.21002C7.88324 8.30326 7.99393 8.37722 8.11575 8.42768C8.23757 8.47814 8.36814 8.50411 8.5 8.50411C8.63186 8.50411 8.76243 8.47814 8.88425 8.42768C9.00607 8.37722 9.11676 8.30326 9.21 8.21002ZM21.5 14.5C21.2348 14.5 20.9804 14.6054 20.7929 14.7929C20.6054 14.9804 20.5 15.2348 20.5 15.5V19.5C20.5 19.7652 20.3946 20.0196 20.2071 20.2071C20.0196 20.3947 19.7652 20.5 19.5 20.5H5.5C5.23478 20.5 4.98043 20.3947 4.79289 20.2071C4.60536 20.0196 4.5 19.7652 4.5 19.5V15.5C4.5 15.2348 4.39464 14.9804 4.20711 14.7929C4.01957 14.6054 3.76522 14.5 3.5 14.5C3.23478 14.5 2.98043 14.6054 2.79289 14.7929C2.60536 14.9804 2.5 15.2348 2.5 15.5V19.5C2.5 20.2957 2.81607 21.0587 3.37868 21.6213C3.94129 22.1839 4.70435 22.5 5.5 22.5H19.5C20.2956 22.5 21.0587 22.1839 21.6213 21.6213C22.1839 21.0587 22.5 20.2957 22.5 19.5V15.5C22.5 15.2348 22.3946 14.9804 22.2071 14.7929C22.0196 14.6054 21.7652 14.5 21.5 14.5Z" fill="white"/>
</svg>
