<svg width="29" height="30" viewBox="0 0 29 30" fill="none" xmlns="http://www.w3.org/2000/svg">
<path d="M24.1219 6.25002C22.8535 4.92153 21.1722 4.1107 19.3817 3.96399C17.5911 3.81727 15.8094 4.34436 14.3583 5.45002C12.8359 4.26707 10.941 3.73066 9.05516 3.94882C7.16936 4.16698 5.43271 5.1235 4.19495 6.62575C2.95718 8.12801 2.31024 10.0644 2.3844 12.045C2.45856 14.0257 3.24831 15.9034 4.59462 17.3L12.025 25.075C12.6472 25.7147 13.4853 26.0733 14.3583 26.0733C15.2313 26.0733 16.0693 25.7147 16.6915 25.075L24.1219 17.3C25.5189 15.8316 26.3031 13.8454 26.3031 11.775C26.3031 9.70468 25.5189 7.71844 24.1219 6.25002V6.25002ZM22.4348 15.575L15.0044 23.3375C14.9198 23.4267 14.8192 23.4975 14.7083 23.5458C14.5974 23.5942 14.4784 23.619 14.3583 23.619C14.2381 23.619 14.1191 23.5942 14.0082 23.5458C13.8973 23.4975 13.7967 23.4267 13.7121 23.3375L6.28172 15.5375C5.34335 14.5355 4.8179 13.1894 4.8179 11.7875C4.8179 10.3857 5.34335 9.03959 6.28172 8.03752C7.23793 7.05126 8.52756 6.49823 9.87129 6.49823C11.215 6.49823 12.5047 7.05126 13.4609 8.03752C13.5721 8.15468 13.7044 8.24768 13.8502 8.31114C13.996 8.3746 14.1524 8.40727 14.3104 8.40727C14.4683 8.40727 14.6247 8.3746 14.7705 8.31114C14.9164 8.24768 15.0487 8.15468 15.1599 8.03752C16.1161 7.05126 17.4058 6.49823 18.7495 6.49823C20.0932 6.49823 21.3829 7.05126 22.3391 8.03752C23.2903 9.02646 23.833 10.3653 23.8509 11.7671C23.8688 13.169 23.3605 14.5224 22.4348 15.5375V15.575Z" fill="white"/>
</svg>
