<svg width="45" height="45" viewBox="0 0 45 45" fill="none" xmlns="http://www.w3.org/2000/svg">
<rect width="45" height="45" rx="22.5" fill="#3E3E3E"/>
<path d="M22.5 23.5C22.1955 23.4964 21.8973 23.5862 21.6454 23.7573C21.3936 23.9284 21.2001 24.1725 21.0912 24.4568C20.9823 24.7411 20.9631 25.052 21.0361 25.3476C21.1092 25.6431 21.2711 25.9092 21.5 26.11V27.5C21.5 27.7652 21.6054 28.0196 21.7929 28.2071C21.9804 28.3946 22.2348 28.5 22.5 28.5C22.7652 28.5 23.0196 28.3946 23.2071 28.2071C23.3946 28.0196 23.5 27.7652 23.5 27.5V26.11C23.7289 25.9092 23.8908 25.6431 23.9639 25.3476C24.0369 25.052 24.0177 24.7411 23.9088 24.4568C23.7999 24.1725 23.6064 23.9284 23.3546 23.7573C23.1027 23.5862 22.8045 23.4964 22.5 23.5V23.5ZM27.5 19.5V17.5C27.5 16.1739 26.9732 14.9021 26.0355 13.9645C25.0979 13.0268 23.8261 12.5 22.5 12.5C21.1739 12.5 19.9021 13.0268 18.9645 13.9645C18.0268 14.9021 17.5 16.1739 17.5 17.5V19.5C16.7044 19.5 15.9413 19.8161 15.3787 20.3787C14.8161 20.9413 14.5 21.7044 14.5 22.5V29.5C14.5 30.2956 14.8161 31.0587 15.3787 31.6213C15.9413 32.1839 16.7044 32.5 17.5 32.5H27.5C28.2956 32.5 29.0587 32.1839 29.6213 31.6213C30.1839 31.0587 30.5 30.2956 30.5 29.5V22.5C30.5 21.7044 30.1839 20.9413 29.6213 20.3787C29.0587 19.8161 28.2956 19.5 27.5 19.5ZM19.5 17.5C19.5 16.7044 19.8161 15.9413 20.3787 15.3787C20.9413 14.8161 21.7044 14.5 22.5 14.5C23.2956 14.5 24.0587 14.8161 24.6213 15.3787C25.1839 15.9413 25.5 16.7044 25.5 17.5V19.5H19.5V17.5ZM28.5 29.5C28.5 29.7652 28.3946 30.0196 28.2071 30.2071C28.0196 30.3946 27.7652 30.5 27.5 30.5H17.5C17.2348 30.5 16.9804 30.3946 16.7929 30.2071C16.6054 30.0196 16.5 29.7652 16.5 29.5V22.5C16.5 22.2348 16.6054 21.9804 16.7929 21.7929C16.9804 21.6054 17.2348 21.5 17.5 21.5H27.5C27.7652 21.5 28.0196 21.6054 28.2071 21.7929C28.3946 21.9804 28.5 22.2348 28.5 22.5V29.5Z" fill="white"/>
</svg>
