<svg width="34" height="34" viewBox="0 0 34 34" fill="none" xmlns="http://www.w3.org/2000/svg">
<rect width="34" height="34" rx="9" fill="#E5F3F4"/>
<path d="M18 18.5H8C7.73478 18.5 7.48043 18.6054 7.29289 18.7929C7.10536 18.9804 7 19.2348 7 19.5C7 19.7652 7.10536 20.0196 7.29289 20.2071C7.48043 20.3946 7.73478 20.5 8 20.5H18C18.2652 20.5 18.5196 20.3946 18.7071 20.2071C18.8946 20.0196 19 19.7652 19 19.5C19 19.2348 18.8946 18.9804 18.7071 18.7929C18.5196 18.6054 18.2652 18.5 18 18.5ZM26 13.5H8C7.73478 13.5 7.48043 13.6054 7.29289 13.7929C7.10536 13.9804 7 14.2348 7 14.5C7 14.7652 7.10536 15.0196 7.29289 15.2071C7.48043 15.3946 7.73478 15.5 8 15.5H26C26.2652 15.5 26.5196 15.3946 26.7071 15.2071C26.8946 15.0196 27 14.7652 27 14.5C27 14.2348 26.8946 13.9804 26.7071 13.7929C26.5196 13.6054 26.2652 13.5 26 13.5Z" fill="#21CAC8"/>
</svg>
