<svg width="36" height="36" viewBox="0 0 36 36" fill="none" xmlns="http://www.w3.org/2000/svg">
<path d="M23.0462 16.2367L16.7024 12.57C16.3169 12.3474 15.8795 12.2302 15.4343 12.2301C14.9891 12.2299 14.5517 12.347 14.1661 12.5694C13.7804 12.7918 13.46 13.1117 13.2371 13.4971C13.0142 13.8825 12.8967 14.3197 12.8962 14.765V22.0983C12.8967 22.5433 13.0141 22.9803 13.2368 23.3656C13.4595 23.7509 13.7796 24.0708 14.1649 24.2933C14.5507 24.516 14.9883 24.6332 15.4337 24.6332C15.8791 24.6332 16.3167 24.516 16.7024 24.2933L23.0462 20.6266C23.4307 20.4035 23.7499 20.0833 23.9718 19.6981C24.1937 19.3129 24.3104 18.8762 24.3104 18.4316C24.3104 17.9871 24.1937 17.5504 23.9718 17.1651C23.7499 16.7799 23.4307 16.4598 23.0462 16.2367ZM21.7774 18.4316L15.4337 22.0983V14.765L21.7774 18.4316ZM17.9712 5.74414C15.4618 5.74414 13.0088 6.48825 10.9224 7.88237C8.83595 9.27649 7.20976 11.258 6.24948 13.5763C5.28919 15.8947 5.03793 18.4457 5.52748 20.9068C6.01703 23.368 7.2254 25.6287 8.99978 27.4031C10.7742 29.1774 13.0349 30.3858 15.496 30.8753C17.9571 31.3649 20.5082 31.1136 22.8265 30.1534C25.1448 29.1931 27.1263 27.5669 28.5205 25.4804C29.9146 23.394 30.6587 20.941 30.6587 18.4316C30.6587 16.7655 30.3305 15.1157 29.6929 13.5763C29.0553 12.037 28.1208 10.6384 26.9426 9.46022C25.7645 8.28208 24.3658 7.34753 22.8265 6.70992C21.2872 6.07231 19.6373 5.74414 17.9712 5.74414ZM17.9712 28.5816C15.9637 28.5816 14.0013 27.9863 12.3322 26.8711C10.663 25.7558 9.36205 24.1705 8.59382 22.3159C7.82559 20.4612 7.62459 18.4204 8.01623 16.4515C8.40787 14.4826 9.37456 12.674 10.7941 11.2545C12.2136 9.835 14.0221 8.86831 15.991 8.47667C17.9599 8.08503 20.0008 8.28603 21.8554 9.05426C23.7101 9.82249 25.2953 11.1234 26.4106 12.7926C27.5259 14.4618 28.1212 16.4242 28.1212 18.4316C28.1212 21.1236 27.0518 23.7053 25.1483 25.6088C23.2448 27.5123 20.6631 28.5816 17.9712 28.5816Z" fill="#969C9D"/>
</svg>
