<svg width="36" height="36" viewBox="0 0 36 36" fill="none" xmlns="http://www.w3.org/2000/svg">
<path fill-rule="evenodd" clip-rule="evenodd" d="M17.9714 10.1677L20.0041 12.2004C20.2411 12.4373 20.4617 12.6844 20.666 12.9402C19.5378 13.9331 18.624 15.1386 17.9714 16.4757C17.3188 15.1386 16.4051 13.9331 15.2769 12.9402C15.4812 12.6844 15.7018 12.4373 15.9388 12.2004L17.9714 10.1677ZM13.243 11.5162C13.5311 11.1454 13.8454 10.7883 14.1861 10.4477L17.9714 6.66229L21.7568 10.4477C22.0975 10.7883 22.4118 11.1453 22.6998 11.5162C23.4735 11.0937 24.3093 10.7557 25.1985 10.5174L30.3695 9.13186L31.755 14.3028C33.369 20.3263 29.7944 26.5178 23.7708 28.1318L18.6759 29.497L17.9714 30.2014L17.267 29.497L12.172 28.1318C6.14848 26.5178 2.57383 20.3263 4.18784 14.3028L5.57338 9.13186L10.7443 10.5174C11.6335 10.7557 12.4694 11.0937 13.243 11.5162ZM13.7894 25.9991L12.8136 25.7376C8.11231 24.4779 5.32238 19.6456 6.58208 14.9443L7.32609 12.1676L10.1028 12.9116C10.7559 13.0866 11.3721 13.3306 11.9457 13.6336C10.0598 17.653 10.6743 22.5548 13.7894 25.9991ZM16.0481 24.7727L15.9388 24.6634C13.3624 22.087 12.7147 18.3122 13.9958 15.1333C16.1862 17.287 17.1861 20.5259 16.3343 23.7049L16.0481 24.7727ZM22.1535 25.999L23.1293 25.7376C27.8305 24.4779 30.6205 19.6456 29.3608 14.9443L28.6167 12.1676L25.8401 12.9116C25.187 13.0866 24.5707 13.3306 23.9971 13.6336C25.8831 17.6529 25.2686 22.5547 22.1535 25.999ZM21.9471 15.1332C23.2282 18.3122 22.5805 22.0869 20.0041 24.6634L19.8947 24.7728L19.6086 23.7049C18.7568 20.5259 19.7567 17.2869 21.9471 15.1332Z" fill="#969C9D"/>
</svg>
