<svg width="36" height="36" viewBox="0 0 36 36" fill="none" xmlns="http://www.w3.org/2000/svg">
<path d="M30.7015 17.1607C30.7051 16.2648 30.4718 15.3839 30.0254 14.6072C29.579 13.8304 28.9353 13.1854 28.1595 12.7375C28.1786 12.5176 28.1786 12.2965 28.1595 12.0766C28.1595 11.0653 27.7577 10.0954 27.0426 9.38033C26.3276 8.66524 25.3577 8.26351 24.3464 8.26351H24.1176C23.906 7.6767 23.5535 7.15077 23.0913 6.73186C22.6291 6.31295 22.0711 6.01384 21.4664 5.86077C20.8616 5.7077 20.2285 5.70535 19.6227 5.85391C19.0168 6.00246 18.4566 6.29741 17.9913 6.71286C17.5259 6.29741 16.9658 6.00246 16.3599 5.85391C15.754 5.70535 15.1209 5.7077 14.5162 5.86077C13.9114 6.01384 13.3535 6.31295 12.8912 6.73186C12.429 7.15077 12.0766 7.6767 11.8649 8.26351H11.6362C10.6249 8.26351 9.655 8.66524 8.93991 9.38033C8.22482 10.0954 7.82309 11.0653 7.82309 12.0766C7.80396 12.2965 7.80396 12.5176 7.82309 12.7375C7.10173 13.1453 6.49097 13.7231 6.04396 14.4208C5.59696 15.1185 5.32726 15.9149 5.25834 16.7407C5.18942 17.5664 5.32338 18.3965 5.64855 19.1586C5.97371 19.9208 6.48024 20.5919 7.12403 21.1136C6.70748 21.8905 6.5001 22.7624 6.52225 23.6437C6.54441 24.5249 6.79533 25.3853 7.2504 26.1403C7.70546 26.8953 8.34902 27.5191 9.11792 27.9503C9.88682 28.3815 10.7546 28.6053 11.6362 28.5999H11.8649C12.0766 29.1867 12.429 29.7126 12.8912 30.1315C13.3535 30.5505 13.9114 30.8496 14.5162 31.0026C15.1209 31.1557 15.754 31.1581 16.3599 31.0095C16.9658 30.8609 17.5259 30.566 17.9913 30.1505C18.4566 30.566 19.0168 30.8609 19.6227 31.0095C20.2285 31.1581 20.8616 31.1557 21.4664 31.0026C22.0711 30.8496 22.6291 30.5505 23.0913 30.1315C23.5535 29.7126 23.906 29.1867 24.1176 28.5999H24.3464C25.2225 28.5944 26.0824 28.3625 26.8426 27.9268C27.6027 27.4911 28.2373 26.8663 28.6849 26.1131C29.1325 25.3598 29.3778 24.5037 29.3971 23.6278C29.4164 22.7518 29.209 21.8857 28.795 21.1136C29.3878 20.6389 29.8668 20.0375 30.1967 19.3534C30.5267 18.6694 30.6991 17.9201 30.7015 17.1607ZM16.7203 14.0467C16.4434 13.8883 16.1544 13.7523 15.856 13.6399C15.5357 13.5321 15.1857 13.5558 14.883 13.706C14.5803 13.8562 14.3496 14.1204 14.2418 14.4407C14.1339 14.7609 14.1577 15.1109 14.3078 15.4136C14.458 15.7163 14.7223 15.947 15.0425 16.0549C15.5318 16.2318 15.955 16.5545 16.255 16.9795C16.555 17.4046 16.7174 17.9114 16.7203 18.4317V20.4018C16.4434 20.2435 16.1544 20.1074 15.856 19.9951C15.5357 19.8872 15.1857 19.911 14.883 20.0611C14.5803 20.2113 14.3496 20.4756 14.2418 20.7958C14.1339 21.116 14.1577 21.466 14.3078 21.7687C14.458 22.0715 14.7223 22.3021 15.0425 22.41C15.5318 22.5869 15.955 22.9096 16.255 23.3347C16.555 23.7597 16.7174 24.2666 16.7203 24.7868V27.3289C16.7203 27.666 16.5863 27.9893 16.348 28.2276C16.1096 28.466 15.7863 28.5999 15.4492 28.5999C15.2033 28.5983 14.9632 28.5254 14.7579 28.39C14.5526 28.2547 14.391 28.0627 14.2926 27.8373C14.5057 27.7122 14.7096 27.572 14.9027 27.4178C15.0312 27.311 15.1374 27.1799 15.2153 27.032C15.2932 26.8842 15.3411 26.7224 15.3565 26.556C15.3718 26.3896 15.3542 26.2218 15.3047 26.0621C15.2552 25.9025 15.1747 25.7542 15.0679 25.6257C14.9611 25.4972 14.83 25.3909 14.6821 25.3131C14.5343 25.2352 14.3725 25.1873 14.2061 25.1719C14.0397 25.1566 13.8718 25.1742 13.7122 25.2237C13.5526 25.2732 13.4043 25.3536 13.2758 25.4605C12.8169 25.8468 12.2361 26.0584 11.6362 26.0578C10.962 26.0578 10.3154 25.79 9.83866 25.3133C9.36194 24.8366 9.09411 24.19 9.09411 23.5158C9.1002 23.0374 9.24117 22.5704 9.50084 22.1685C9.78609 22.2197 10.0753 22.2452 10.3651 22.2448C10.7022 22.2448 11.0255 22.1109 11.2639 21.8725C11.5022 21.6341 11.6362 21.3108 11.6362 20.9737C11.6362 20.6367 11.5022 20.3134 11.2639 20.075C11.0255 19.8366 10.7022 19.7027 10.3651 19.7027C10.0649 19.7045 9.76715 19.6484 9.48813 19.5375C9.031 19.3726 8.6307 19.0802 8.33466 18.6948C8.03863 18.3094 7.85925 17.8473 7.81779 17.3631C7.77632 16.8789 7.87451 16.393 8.10072 15.9629C8.32692 15.5328 8.67167 15.1766 9.09411 14.9364C9.27472 15.1026 9.47046 15.2515 9.67878 15.3812C9.97206 15.5498 10.3203 15.5949 10.6468 15.5067C10.9734 15.4185 11.2515 15.2042 11.4201 14.911C11.5886 14.6177 11.6338 14.2695 11.5456 13.9429C11.4574 13.6164 11.2431 13.3382 10.9498 13.1697C10.7709 13.071 10.6217 12.9261 10.5177 12.7502C10.4001 12.5462 10.347 12.3114 10.3651 12.0766C10.3651 11.7395 10.499 11.4162 10.7374 11.1778C10.9758 10.9395 11.2991 10.8056 11.6362 10.8056C11.7247 10.7932 11.8145 10.7932 11.9031 10.8056C11.9704 11.0098 12.051 11.2093 12.1446 11.4029C12.2276 11.5486 12.3386 11.6764 12.4713 11.7789C12.6039 11.8815 12.7555 11.9568 12.9173 12.0005C13.0792 12.0442 13.2481 12.0554 13.4143 12.0336C13.5805 12.0118 13.7408 11.9573 13.8859 11.8732C14.1677 11.7037 14.3728 11.4315 14.4581 11.1139C14.5434 10.7963 14.5023 10.458 14.3434 10.17C14.2368 9.97508 14.18 9.75676 14.1782 9.53453C14.1782 9.19744 14.3121 8.87415 14.5505 8.63579C14.7888 8.39742 15.1121 8.26351 15.4492 8.26351C15.7863 8.26351 16.1096 8.39742 16.348 8.63579C16.5863 8.87415 16.7203 9.19744 16.7203 9.53453V14.0467ZM26.4944 19.5375C26.2154 19.6484 25.9177 19.7045 25.6174 19.7027C25.2803 19.7027 24.957 19.8366 24.7187 20.075C24.4803 20.3134 24.3464 20.6367 24.3464 20.9737C24.3464 21.3108 24.4803 21.6341 24.7187 21.8725C24.957 22.1109 25.2803 22.2448 25.6174 22.2448C25.9072 22.2452 26.1965 22.2197 26.4817 22.1685C26.7414 22.5704 26.8824 23.0374 26.8884 23.5158C26.8884 24.19 26.6206 24.8366 26.1439 25.3133C25.6672 25.79 25.0206 26.0578 24.3464 26.0578C23.7465 26.0584 23.1657 25.8468 22.7068 25.4605C22.4472 25.2447 22.1126 25.1409 21.7765 25.1719C21.4404 25.2029 21.1304 25.3661 20.9146 25.6257C20.6989 25.8853 20.5951 26.2199 20.6261 26.556C20.6571 26.8921 20.8203 27.2021 21.0799 27.4178C21.273 27.572 21.4768 27.7122 21.69 27.8373C21.5916 28.0627 21.43 28.2547 21.2247 28.39C21.0194 28.5254 20.7792 28.5983 20.5333 28.5999C20.1962 28.5999 19.8729 28.466 19.6346 28.2276C19.3962 27.9893 19.2623 27.666 19.2623 27.3289V24.7868C19.2651 24.2666 19.4275 23.7597 19.7275 23.3347C20.0276 22.9096 20.4508 22.5869 20.9401 22.41C21.2603 22.3021 21.5246 22.0715 21.6747 21.7687C21.8249 21.466 21.8487 21.116 21.7408 20.7958C21.6329 20.4756 21.4023 20.2113 21.0995 20.0611C20.7968 19.911 20.4468 19.8872 20.1266 19.9951C19.8281 20.1074 19.5391 20.2435 19.2623 20.4018V18.4317C19.2651 17.9114 19.4275 17.4046 19.7275 16.9795C20.0276 16.5545 20.4508 16.2318 20.9401 16.0549C21.2603 15.947 21.5246 15.7163 21.6747 15.4136C21.8249 15.1109 21.8487 14.7609 21.7408 14.4407C21.6329 14.1204 21.4023 13.8562 21.0995 13.706C20.7968 13.5558 20.4468 13.5321 20.1266 13.6399C19.8281 13.7523 19.5391 13.8883 19.2623 14.0467V9.53453C19.2623 9.19744 19.3962 8.87415 19.6346 8.63579C19.8729 8.39742 20.1962 8.26351 20.5333 8.26351C20.8704 8.26351 21.1937 8.39742 21.4321 8.63579C21.6704 8.87415 21.8043 9.19744 21.8043 9.53453C21.8025 9.75676 21.7458 9.97508 21.6391 10.17C21.5546 10.3144 21.4993 10.4739 21.4765 10.6396C21.4538 10.8053 21.4639 10.9739 21.5064 11.1357C21.5489 11.2975 21.623 11.4492 21.7243 11.5823C21.8255 11.7154 21.9521 11.8273 22.0967 11.9113C22.2418 11.9954 22.402 12.0499 22.5682 12.0717C22.7345 12.0936 22.9034 12.0823 23.0652 12.0386C23.2271 11.9949 23.3787 11.9196 23.5113 11.817C23.6439 11.7145 23.755 11.5867 23.838 11.4411C23.9331 11.2351 24.0138 11.0227 24.0795 10.8056C24.168 10.7932 24.2579 10.7932 24.3464 10.8056C24.6835 10.8056 25.0068 10.9395 25.2451 11.1778C25.4835 11.4162 25.6174 11.7395 25.6174 12.0766C25.6155 12.3257 25.5403 12.5688 25.4013 12.7756C25.2974 12.9406 25.153 13.0762 24.9819 13.1697C24.6886 13.3382 24.4743 13.6164 24.3861 13.9429C24.2979 14.2695 24.3431 14.6177 24.5116 14.911C24.6802 15.2042 24.9583 15.4185 25.2849 15.5067C25.6114 15.5949 25.9597 15.5498 26.2529 15.3812C26.4811 15.2578 26.6944 15.1086 26.8884 14.9364C27.3123 15.1723 27.6598 15.5246 27.89 15.9517C28.1201 16.3788 28.2232 16.8628 28.1871 17.3466C28.151 17.8304 27.9773 18.2937 27.6863 18.682C27.3954 19.0702 26.9995 19.367 26.5453 19.5375H26.4944Z" fill="#969C9D"/>
</svg>
