<svg width="36" height="36" viewBox="0 0 36 36" fill="none" xmlns="http://www.w3.org/2000/svg">
<path d="M27.9591 13.4526L20.4681 6.88541C19.7814 6.27121 18.8924 5.93164 17.971 5.93164C17.0497 5.93164 16.1607 6.27121 15.474 6.88541L7.983 13.4526C7.58643 13.8072 7.26998 14.2423 7.0547 14.7288C6.83942 15.2154 6.73026 15.7422 6.73449 16.2742V27.1861C6.73449 28.1795 7.12911 29.1322 7.83153 29.8346C8.53395 30.537 9.48664 30.9316 10.48 30.9316H25.4621C26.4555 30.9316 27.4081 30.537 28.1106 29.8346C28.813 29.1322 29.2076 28.1795 29.2076 27.1861V16.2617C29.2101 15.7318 29.1 15.2074 28.8848 14.7231C28.6696 14.2389 28.3541 13.8058 27.9591 13.4526ZM20.4681 28.4346H15.474V22.1921C15.474 21.861 15.6056 21.5434 15.8397 21.3093C16.0739 21.0751 16.3914 20.9436 16.7225 20.9436H19.2196C19.5507 20.9436 19.8682 21.0751 20.1024 21.3093C20.3365 21.5434 20.4681 21.861 20.4681 22.1921V28.4346ZM26.7106 27.1861C26.7106 27.5172 26.5791 27.8348 26.3449 28.069C26.1108 28.3031 25.7932 28.4346 25.4621 28.4346H22.9651V22.1921C22.9651 21.1987 22.5705 20.246 21.868 19.5436C21.1656 18.8412 20.2129 18.4466 19.2196 18.4466H16.7225C15.7292 18.4466 14.7765 18.8412 14.0741 19.5436C13.3716 20.246 12.977 21.1987 12.977 22.1921V28.4346H10.48C10.1489 28.4346 9.83133 28.3031 9.59718 28.069C9.36304 27.8348 9.23151 27.5172 9.23151 27.1861V16.2617C9.23173 16.0844 9.2697 15.9092 9.34289 15.7478C9.41609 15.5863 9.52282 15.4423 9.656 15.3253L17.147 8.77066C17.3749 8.5705 17.6678 8.46011 17.971 8.46011C18.2743 8.46011 18.5672 8.5705 18.7951 8.77066L26.2861 15.3253C26.4193 15.4423 26.526 15.5863 26.5992 15.7478C26.6724 15.9092 26.7104 16.0844 26.7106 16.2617V27.1861Z" fill="#969C9D"/>
</svg>
