<svg width="36" height="36" viewBox="0 0 36 36" fill="none" xmlns="http://www.w3.org/2000/svg">
<path d="M14.4314 16.5794C14.6691 16.8157 14.9907 16.9483 15.3258 16.9483C15.661 16.9483 15.9826 16.8157 16.2203 16.5794C16.4566 16.3417 16.5893 16.0201 16.5893 15.6849C16.5893 15.3497 16.4566 15.0282 16.2203 14.7904C15.4942 14.1015 14.5315 13.7174 13.5306 13.7174C12.5297 13.7174 11.5669 14.1015 10.8408 14.7904C10.708 14.9042 10.6001 15.0442 10.524 15.2016C10.4478 15.359 10.405 15.5304 10.3983 15.7051C10.3915 15.8799 10.421 16.0541 10.4848 16.2169C10.5485 16.3797 10.6453 16.5276 10.7689 16.6513C10.8926 16.7749 11.0405 16.8717 11.2033 16.9354C11.3661 16.9992 11.5403 17.0287 11.7151 17.0219C11.8898 17.0152 12.0612 16.9724 12.2186 16.8962C12.3761 16.8201 12.516 16.7122 12.6298 16.5794C12.7477 16.4605 12.888 16.3661 13.0426 16.3017C13.1972 16.2373 13.3631 16.2041 13.5306 16.2041C13.6981 16.2041 13.8639 16.2373 14.0185 16.3017C14.1731 16.3661 14.3134 16.4605 14.4314 16.5794ZM21.7774 20.9693H14.1649C13.8285 20.9693 13.5057 21.1029 13.2678 21.3409C13.0299 21.5788 12.8962 21.9015 12.8962 22.238C12.8962 22.5745 13.0299 22.8972 13.2678 23.1351C13.5057 23.3731 13.8285 23.5068 14.1649 23.5068H21.7774C22.1139 23.5068 22.4366 23.3731 22.6746 23.1351C22.9125 22.8972 23.0462 22.5745 23.0462 22.238C23.0462 21.9015 22.9125 21.5788 22.6746 21.3409C22.4366 21.1029 22.1139 20.9693 21.7774 20.9693ZM25.1016 14.7904C24.3755 14.1015 23.4127 13.7174 22.4118 13.7174C21.4109 13.7174 20.4481 14.1015 19.7221 14.7904C19.5142 15.0332 19.4056 15.3454 19.4179 15.6647C19.4303 15.984 19.5626 16.2869 19.7886 16.5129C20.0146 16.7388 20.3175 16.8712 20.6368 16.8835C20.9561 16.8959 21.2683 16.7872 21.511 16.5794C21.629 16.4605 21.7693 16.3661 21.9239 16.3017C22.0785 16.2373 22.2443 16.2041 22.4118 16.2041C22.5793 16.2041 22.7451 16.2373 22.8997 16.3017C23.0544 16.3661 23.1947 16.4605 23.3126 16.5794C23.5503 16.8157 23.8719 16.9483 24.2071 16.9483C24.5423 16.9483 24.8639 16.8157 25.1016 16.5794C25.3379 16.3417 25.4705 16.0201 25.4705 15.6849C25.4705 15.3497 25.3379 15.0282 25.1016 14.7904ZM17.9712 5.74426C15.4618 5.74426 13.0088 6.48837 10.9224 7.88249C8.83595 9.27661 7.20976 11.2581 6.24948 13.5765C5.28919 15.8948 5.03793 18.4458 5.52748 20.907C6.01703 23.3681 7.2254 25.6288 8.99978 27.4032C10.7742 29.1776 13.0349 30.3859 15.496 30.8755C17.9571 31.365 20.5082 31.1138 22.8265 30.1535C25.1448 29.1932 27.1263 27.567 28.5205 25.4806C29.9146 23.3941 30.6587 20.9411 30.6587 18.4318C30.6587 16.7656 30.3305 15.1158 29.6929 13.5765C29.0553 12.0371 28.1208 10.6385 26.9426 9.46034C25.7645 8.2822 24.3658 7.34765 22.8265 6.71004C21.2872 6.07243 19.6373 5.74426 17.9712 5.74426ZM17.9712 28.5818C15.9637 28.5818 14.0013 27.9865 12.3322 26.8712C10.663 25.7559 9.36205 24.1707 8.59382 22.316C7.82559 20.4613 7.62459 18.4205 8.01623 16.4516C8.40787 14.4827 9.37456 12.6741 10.7941 11.2546C12.2136 9.83512 14.0221 8.86843 15.991 8.47679C17.9599 8.08515 20.0008 8.28616 21.8554 9.05438C23.7101 9.82261 25.2953 11.1236 26.4106 12.7927C27.5259 14.4619 28.1212 16.4243 28.1212 18.4318C28.1212 21.1237 27.0518 23.7054 25.1483 25.6089C23.2448 27.5124 20.6631 28.5818 17.9712 28.5818Z" fill="#969C9D"/>
</svg>
