<svg width="40" height="41" viewBox="0 0 40 41" fill="none" xmlns="http://www.w3.org/2000/svg">
<path d="M19.9998 25.8692C21.7679 25.8692 23.4636 25.1668 24.7139 23.9165C25.9641 22.6663 26.6665 20.9706 26.6665 19.2025V9.20249C26.6665 7.43438 25.9641 5.73869 24.7139 4.48845C23.4636 3.23821 21.7679 2.53583 19.9998 2.53583C18.2317 2.53583 16.536 3.23821 15.2858 4.48845C14.0355 5.73869 13.3332 7.43438 13.3332 9.20249V19.2025C13.3332 20.9706 14.0355 22.6663 15.2858 23.9165C16.536 25.1668 18.2317 25.8692 19.9998 25.8692ZM16.6665 9.20249C16.6665 8.31844 17.0177 7.47059 17.6428 6.84547C18.2679 6.22035 19.1158 5.86916 19.9998 5.86916C20.8839 5.86916 21.7317 6.22035 22.3569 6.84547C22.982 7.47059 23.3332 8.31844 23.3332 9.20249V19.2025C23.3332 20.0865 22.982 20.9344 22.3569 21.5595C21.7317 22.1846 20.8839 22.5358 19.9998 22.5358C19.1158 22.5358 18.2679 22.1846 17.6428 21.5595C17.0177 20.9344 16.6665 20.0865 16.6665 19.2025V9.20249ZM33.3332 19.2025C33.3332 18.7605 33.1576 18.3365 32.845 18.024C32.5325 17.7114 32.1085 17.5358 31.6665 17.5358C31.2245 17.5358 30.8006 17.7114 30.488 18.024C30.1754 18.3365 29.9998 18.7605 29.9998 19.2025C29.9998 21.8547 28.9463 24.3982 27.0709 26.2736C25.1955 28.1489 22.652 29.2025 19.9998 29.2025C17.3477 29.2025 14.8041 28.1489 12.9288 26.2736C11.0534 24.3982 9.99984 21.8547 9.99984 19.2025C9.99984 18.7605 9.82424 18.3365 9.51168 18.024C9.19912 17.7114 8.7752 17.5358 8.33317 17.5358C7.89114 17.5358 7.46722 17.7114 7.15466 18.024C6.8421 18.3365 6.6665 18.7605 6.6665 19.2025C6.66945 22.448 7.85604 25.581 10.0038 28.0141C12.1516 30.4473 15.1131 32.0135 18.3332 32.4192V35.8692H14.9998C14.5578 35.8692 14.1339 36.0448 13.8213 36.3573C13.5088 36.6699 13.3332 37.0938 13.3332 37.5358C13.3332 37.9779 13.5088 38.4018 13.8213 38.7143C14.1339 39.0269 14.5578 39.2025 14.9998 39.2025H24.9998C25.4419 39.2025 25.8658 39.0269 26.1783 38.7143C26.4909 38.4018 26.6665 37.9779 26.6665 37.5358C26.6665 37.0938 26.4909 36.6699 26.1783 36.3573C25.8658 36.0448 25.4419 35.8692 24.9998 35.8692H21.6665V32.4192C24.8865 32.0135 27.848 30.4473 29.9958 28.0141C32.1436 25.581 33.3302 22.448 33.3332 19.2025V19.2025Z" fill="#21CAC8"/>
</svg>
