<svg width="14" height="15" viewBox="0 0 14 15" fill="none" xmlns="http://www.w3.org/2000/svg">
<path d="M12.8332 4.23191C12.8336 4.15514 12.8189 4.07903 12.7899 4.00796C12.7609 3.93689 12.7181 3.87225 12.664 3.81774L10.1907 1.34441C10.1362 1.29034 10.0715 1.24757 10.0005 1.21854C9.92939 1.18951 9.85328 1.1748 9.77652 1.17524C9.69974 1.1748 9.62364 1.18951 9.55257 1.21854C9.4815 1.24757 9.41685 1.29034 9.36235 1.34441L7.71151 2.99524L1.33568 9.37107C1.28162 9.42558 1.23884 9.49022 1.20981 9.5613C1.18078 9.63237 1.16607 9.70847 1.16651 9.78524V12.2586C1.16651 12.4133 1.22797 12.5617 1.33737 12.6711C1.44676 12.7805 1.59514 12.8419 1.74985 12.8419H4.22318C4.3048 12.8463 4.38645 12.8336 4.46283 12.8044C4.5392 12.7753 4.6086 12.7304 4.66651 12.6727L11.0073 6.29691L12.664 4.67524C12.7173 4.61871 12.7606 4.55364 12.7923 4.48274C12.798 4.43624 12.798 4.38924 12.7923 4.34274C12.7951 4.31559 12.7951 4.28823 12.7923 4.26107L12.8332 4.23191ZM3.98401 11.6752H2.33318V10.0244L8.12568 4.23191L9.77652 5.88274L3.98401 11.6752ZM10.599 5.06024L8.94818 3.40941L9.77652 2.58691L11.4215 4.23191L10.599 5.06024Z" fill="#CFD7D9"/>
</svg>
