<svg width="121" height="34" viewBox="0 0 121 34" fill="none" xmlns="http://www.w3.org/2000/svg">
<rect width="121" height="34" rx="17" fill="#F7FAFB"/>
<rect x="3" y="3" width="28" height="28" rx="14" fill="#E5F3F4"/>
<path d="M19.7825 17.5325C20.5178 16.954 21.0545 16.1607 21.3179 15.2629C21.5814 14.3652 21.5584 13.4077 21.2523 12.5236C20.9462 11.6395 20.3722 10.8728 19.6101 10.3301C18.8479 9.78746 17.9356 9.49585 17 9.49585C16.0644 9.49585 15.1521 9.78746 14.3899 10.3301C13.6278 10.8728 13.0538 11.6395 12.7477 12.5236C12.4416 13.4077 12.4186 14.3652 12.6821 15.2629C12.9455 16.1607 13.4822 16.954 14.2175 17.5325C12.9576 18.0373 11.8582 18.8745 11.0367 19.9549C10.2151 21.0353 9.70217 22.3184 9.5525 23.6675C9.54166 23.766 9.55033 23.8656 9.57802 23.9608C9.6057 24.0559 9.65185 24.1447 9.71383 24.222C9.83901 24.3781 10.0211 24.4781 10.22 24.5C10.4189 24.5218 10.6184 24.4638 10.7745 24.3386C10.9306 24.2135 11.0306 24.0314 11.0525 23.8325C11.2172 22.3664 11.9163 21.0123 13.0162 20.0291C14.1161 19.0458 15.5397 18.5022 17.015 18.5022C18.4903 18.5022 19.9139 19.0458 21.0138 20.0291C22.1137 21.0123 22.8128 22.3664 22.9775 23.8325C22.9979 24.0168 23.0858 24.187 23.2243 24.3102C23.3628 24.4335 23.5421 24.5011 23.7275 24.5H23.81C24.0066 24.4773 24.1863 24.3779 24.3099 24.2234C24.4335 24.0689 24.4911 23.8717 24.47 23.675C24.3196 22.3221 23.8039 21.0357 22.9781 19.9536C22.1524 18.8715 21.0477 18.0346 19.7825 17.5325ZM17 17C16.4067 17 15.8266 16.824 15.3333 16.4944C14.8399 16.1647 14.4554 15.6962 14.2284 15.148C14.0013 14.5998 13.9419 13.9966 14.0576 13.4147C14.1734 12.8328 14.4591 12.2982 14.8787 11.8787C15.2982 11.4591 15.8328 11.1734 16.4147 11.0576C16.9967 10.9419 17.5999 11.0013 18.148 11.2283C18.6962 11.4554 19.1648 11.8399 19.4944 12.3333C19.8241 12.8266 20 13.4066 20 14C20 14.7956 19.6839 15.5587 19.1213 16.1213C18.5587 16.6839 17.7956 17 17 17Z" fill="#21CAC8"/>
<path d="M45.2144 21V11.718H52.5594V21H50.5964V13.356H47.1774V21H45.2144ZM58.6969 13.772C59.4942 13.772 60.1399 14.084 60.6339 14.708C61.1279 15.3233 61.3749 16.2333 61.3749 17.438C61.3749 18.244 61.2579 18.9243 61.0239 19.479C60.7899 20.025 60.4692 20.4367 60.0619 20.714C59.6546 20.9913 59.1822 21.13 58.6449 21.13C58.3069 21.13 58.0122 21.0867 57.7609 21C57.5182 20.9133 57.3102 20.8007 57.1369 20.662C56.9636 20.5233 56.8119 20.376 56.6819 20.22H56.5779C56.6126 20.3847 56.6386 20.558 56.6559 20.74C56.6732 20.9133 56.6819 21.0867 56.6819 21.26V24.12H54.7449V13.902H56.3179L56.5909 14.825H56.6819C56.8119 14.6343 56.9679 14.461 57.1499 14.305C57.3319 14.1403 57.5486 14.0103 57.7999 13.915C58.0599 13.8197 58.3589 13.772 58.6969 13.772ZM58.0729 15.319C57.7349 15.319 57.4662 15.3883 57.2669 15.527C57.0676 15.6657 56.9202 15.878 56.8249 16.164C56.7382 16.4413 56.6906 16.7923 56.6819 17.217V17.425C56.6819 17.8843 56.7252 18.2743 56.8119 18.595C56.8986 18.907 57.0459 19.1453 57.2539 19.31C57.4619 19.4747 57.7436 19.557 58.0989 19.557C58.3936 19.557 58.6362 19.4747 58.8269 19.31C59.0176 19.1453 59.1606 18.9027 59.2559 18.582C59.3512 18.2613 59.3989 17.8713 59.3989 17.412C59.3989 16.7187 59.2906 16.1987 59.0739 15.852C58.8659 15.4967 58.5322 15.319 58.0729 15.319ZM69.4195 17.438C69.4195 18.0273 69.3371 18.5517 69.1725 19.011C69.0165 19.4703 68.7868 19.8603 68.4835 20.181C68.1888 20.493 67.8291 20.7313 67.4045 20.896C66.9798 21.052 66.4988 21.13 65.9615 21.13C65.4675 21.13 65.0081 21.052 64.5835 20.896C64.1675 20.7313 63.8078 20.493 63.5045 20.181C63.2011 19.8603 62.9628 19.4703 62.7895 19.011C62.6248 18.5517 62.5425 18.0273 62.5425 17.438C62.5425 16.6493 62.6811 15.9863 62.9585 15.449C63.2358 14.903 63.6345 14.487 64.1545 14.201C64.6745 13.915 65.2898 13.772 66.0005 13.772C66.6678 13.772 67.2571 13.915 67.7685 14.201C68.2798 14.487 68.6828 14.903 68.9775 15.449C69.2721 15.9863 69.4195 16.6493 69.4195 17.438ZM64.5185 17.438C64.5185 17.906 64.5661 18.3003 64.6615 18.621C64.7655 18.933 64.9258 19.1713 65.1425 19.336C65.3591 19.492 65.6408 19.57 65.9875 19.57C66.3341 19.57 66.6115 19.492 66.8195 19.336C67.0361 19.1713 67.1921 18.933 67.2875 18.621C67.3915 18.3003 67.4435 17.906 67.4435 17.438C67.4435 16.97 67.3915 16.58 67.2875 16.268C67.1921 15.956 67.0361 15.722 66.8195 15.566C66.6028 15.41 66.3211 15.332 65.9745 15.332C65.4631 15.332 65.0905 15.5097 64.8565 15.865C64.6311 16.2117 64.5185 16.736 64.5185 17.438ZM76.2073 13.863C77.0306 13.9323 77.724 14.1273 78.2873 14.448C78.8506 14.76 79.2753 15.1717 79.5613 15.683C79.856 16.1943 80.0033 16.7837 80.0033 17.451C80.0033 18.1097 79.8603 18.699 79.5743 19.219C79.297 19.739 78.8766 20.1593 78.3133 20.48C77.7586 20.792 77.0566 20.9827 76.2073 21.052V24.12H74.4133V21.052C73.5986 20.974 72.9053 20.779 72.3333 20.467C71.77 20.1463 71.3366 19.7303 71.0333 19.219C70.7386 18.699 70.5913 18.1097 70.5913 17.451C70.5913 16.775 70.7256 16.177 70.9943 15.657C71.2716 15.137 71.692 14.721 72.2553 14.409C72.8273 14.097 73.5466 13.915 74.4133 13.863V11.12H76.2073V13.863ZM74.4133 15.319C74.0406 15.371 73.7156 15.4967 73.4383 15.696C73.161 15.8867 72.9486 16.1337 72.8013 16.437C72.654 16.7317 72.5803 17.0697 72.5803 17.451C72.5803 17.8323 72.6496 18.1747 72.7883 18.478C72.9356 18.7813 73.1436 19.0283 73.4123 19.219C73.6896 19.4097 74.0233 19.531 74.4133 19.583V15.319ZM76.2073 19.583C76.5973 19.531 76.9266 19.4097 77.1953 19.219C77.464 19.0283 77.6676 18.7813 77.8063 18.478C77.945 18.1747 78.0143 17.8323 78.0143 17.451C78.0143 17.0697 77.9406 16.7317 77.7933 16.437C77.646 16.1337 77.438 15.8867 77.1693 15.696C76.9006 15.5053 76.58 15.3883 76.2073 15.345V19.583ZM83.4802 16.71C83.4802 16.8573 83.4715 17.0393 83.4542 17.256C83.4455 17.4727 83.4325 17.6937 83.4152 17.919C83.4065 18.1443 83.3935 18.3437 83.3762 18.517C83.3588 18.6903 83.3458 18.8117 83.3372 18.881L86.6132 13.902H88.9402V21H87.0682V18.166C87.0682 17.932 87.0768 17.6763 87.0942 17.399C87.1115 17.113 87.1288 16.8487 87.1462 16.606C87.1722 16.3547 87.1895 16.164 87.1982 16.034L83.9352 21H81.6082V13.902H83.4802V16.71ZM97.3216 21H95.3846V15.358H93.6036C93.517 16.398 93.4086 17.2863 93.2786 18.023C93.1573 18.751 93.0013 19.3447 92.8106 19.804C92.6286 20.2633 92.3946 20.6013 92.1086 20.818C91.8226 21.026 91.4716 21.13 91.0556 21.13C90.8303 21.13 90.6266 21.1127 90.4446 21.078C90.2626 21.0433 90.098 20.9913 89.9506 20.922V19.375C90.046 19.4097 90.1456 19.44 90.2496 19.466C90.3536 19.492 90.462 19.505 90.5746 19.505C90.696 19.505 90.8086 19.4573 90.9126 19.362C91.0253 19.2667 91.1293 19.0977 91.2246 18.855C91.3286 18.6123 91.424 18.2787 91.5106 17.854C91.5973 17.4293 91.6753 16.8963 91.7446 16.255C91.8226 15.605 91.892 14.8207 91.9526 13.902H97.3216V21ZM102.646 16.645C103.374 16.645 103.976 16.723 104.453 16.879C104.929 17.0263 105.28 17.256 105.506 17.568C105.74 17.88 105.857 18.27 105.857 18.738C105.857 19.1973 105.748 19.596 105.532 19.934C105.324 20.272 104.99 20.5363 104.531 20.727C104.071 20.909 103.469 21 102.724 21H99.3435V13.902H101.281V16.645H102.646ZM103.92 18.764C103.92 18.4867 103.807 18.2873 103.582 18.166C103.365 18.0447 103.04 17.984 102.607 17.984H101.281V19.661H102.633C103.014 19.661 103.322 19.5917 103.556 19.453C103.798 19.3143 103.92 19.0847 103.92 18.764Z" fill="#4F4F4F"/>
</svg>
