<svg width="26" height="24" viewBox="0 0 26 24" fill="none" xmlns="http://www.w3.org/2000/svg">
<path d="M0 15.447V8.30665C0.00147357 6.94663 0.53553 5.64274 1.485 4.68106C2.43446 3.71937 3.72179 3.17844 5.06455 3.17693H18.4249L16.9853 1.71894C16.893 1.62544 16.8198 1.51443 16.7698 1.39226C16.7199 1.2701 16.6942 1.13916 16.6942 1.00692C16.6942 0.739866 16.7989 0.483748 16.9854 0.294914C17.1718 0.106079 17.4247 -4.72076e-06 17.6884 1.5756e-10C17.952 4.72107e-06 18.2049 0.106097 18.3913 0.294939L21.5279 3.47181C21.7143 3.66065 21.819 3.91676 21.819 4.18381C21.819 4.45087 21.7143 4.70698 21.5279 4.89582L18.2981 8.16709C18.2058 8.26059 18.0962 8.33477 17.9756 8.38537C17.855 8.43598 17.7257 8.46202 17.5951 8.46202C17.4646 8.46202 17.3353 8.43598 17.2147 8.38537C17.0941 8.33477 16.9845 8.26059 16.8921 8.16709C16.7998 8.07358 16.7266 7.96258 16.6766 7.84041C16.6267 7.71824 16.601 7.5873 16.601 7.45506C16.601 7.32283 16.6267 7.19189 16.6766 7.06972C16.7266 6.94755 16.7998 6.83654 16.8921 6.74304L18.4249 5.1908H5.06455C4.24895 5.19173 3.46702 5.52031 2.89031 6.10444C2.3136 6.68858 1.98921 7.48057 1.9883 8.30665V15.447C1.9883 15.7141 1.88356 15.9702 1.69712 16.159C1.51068 16.3479 1.25781 16.4539 0.99415 16.4539C0.730485 16.4539 0.477619 16.3479 0.29118 16.159C0.10474 15.9702 0 15.7141 0 15.447H0ZM24.4561 7.29972C24.1924 7.29972 23.9396 7.40581 23.7531 7.59464C23.5667 7.78348 23.4619 8.0396 23.4619 8.30665V15.447C23.461 16.2731 23.1366 17.0651 22.5599 17.6492C21.9832 18.2334 21.2013 18.5619 20.3857 18.5629H7.02531L8.55794 17.0106C8.65026 16.9171 8.72349 16.8061 8.77345 16.6839C8.82341 16.5617 8.84913 16.4308 8.84913 16.2986C8.84913 16.1663 8.82341 16.0354 8.77345 15.9132C8.72349 15.791 8.65026 15.68 8.55794 15.5865C8.46562 15.493 8.35603 15.4188 8.23541 15.3682C8.11479 15.3176 7.98551 15.2916 7.85495 15.2916C7.7244 15.2916 7.59512 15.3176 7.4745 15.3682C7.35388 15.4188 7.24428 15.493 7.15196 15.5865L3.92222 18.8577C3.8299 18.9512 3.75667 19.0622 3.7067 19.1844C3.65674 19.3065 3.63102 19.4375 3.63102 19.5697C3.63102 19.702 3.65674 19.8329 3.7067 19.9551C3.75667 20.0772 3.8299 20.1882 3.92222 20.2818L7.05876 23.4586C7.24521 23.6475 7.49808 23.7536 7.76175 23.7536C8.02542 23.7536 8.27829 23.6475 8.46474 23.4586C8.65118 23.2698 8.75593 23.0137 8.75593 22.7466C8.75593 22.4795 8.65118 22.2234 8.46474 22.0346L7.02531 20.5767H20.3857C21.7284 20.5752 23.0158 20.0343 23.9652 19.0726C24.9147 18.1109 25.4488 16.807 25.4502 15.447V8.30665C25.4502 8.0396 25.3455 7.78348 25.1591 7.59464C24.9726 7.40581 24.7198 7.29972 24.4561 7.29972V7.29972ZM11.731 9.45757V14.2959C11.731 14.5629 11.8357 14.8191 12.0221 15.0079C12.2086 15.1967 12.4615 15.3028 12.7251 15.3028C12.9888 15.3028 13.2417 15.1967 13.4281 15.0079C13.6145 14.8191 13.7193 14.5629 13.7193 14.2959V9.45757C13.7193 9.19052 13.6145 8.9344 13.4281 8.74557C13.2417 8.55673 12.9888 8.45064 12.7251 8.45064C12.4615 8.45064 12.2086 8.55673 12.0221 8.74557C11.8357 8.9344 11.731 9.19052 11.731 9.45757V9.45757Z" fill="white"/>
</svg>
