<svg width="134" height="35" viewBox="0 0 134 35" fill="none" xmlns="http://www.w3.org/2000/svg">
<rect x="0.0874023" y="0.0615234" width="133" height="34" rx="17" fill="#F7FAFB"/>
<rect x="3.0874" y="3.06152" width="28" height="28" rx="14" fill="#E5F3F4"/>
<path d="M25.3064 17.7214C25.1461 17.5389 25.0577 17.3043 25.0577 17.0614C25.0577 16.8185 25.1461 16.5839 25.3064 16.4014L26.5864 14.9614C26.7274 14.8041 26.815 14.6061 26.8366 14.3959C26.8581 14.1857 26.8126 13.9741 26.7064 13.7914L24.7064 10.3314C24.6013 10.1489 24.4413 10.0043 24.2491 9.9181C24.057 9.83191 23.8426 9.80858 23.6364 9.85142L21.7564 10.2314C21.5172 10.2808 21.2681 10.241 21.0563 10.1194C20.8444 9.99783 20.6844 9.8029 20.6064 9.57142L19.9964 7.74142C19.9293 7.5428 19.8015 7.37028 19.631 7.24826C19.4605 7.12624 19.256 7.06088 19.0464 7.06142H15.0464C14.8283 7.05004 14.6125 7.11034 14.432 7.23313C14.2514 7.35592 14.116 7.53444 14.0464 7.74142L13.4864 9.57142C13.4084 9.8029 13.2484 9.99783 13.0365 10.1194C12.8246 10.241 12.5756 10.2808 12.3364 10.2314L10.4064 9.85142C10.2109 9.8238 10.0117 9.85464 9.83374 9.94006C9.65579 10.0255 9.50709 10.1616 9.40639 10.3314L7.40639 13.7914C7.29755 13.9721 7.24861 14.1825 7.26657 14.3926C7.28453 14.6028 7.36847 14.8019 7.50639 14.9614L8.77639 16.4014C8.93671 16.5839 9.02512 16.8185 9.02512 17.0614C9.02512 17.3043 8.93671 17.5389 8.77639 17.7214L7.50639 19.1614C7.36847 19.321 7.28453 19.5201 7.26657 19.7302C7.24861 19.9403 7.29755 20.1508 7.40639 20.3314L9.40639 23.7914C9.51149 23.9739 9.67151 24.1185 9.86364 24.2047C10.0558 24.2909 10.2702 24.3143 10.4764 24.2714L12.3564 23.8914C12.5956 23.842 12.8446 23.8818 13.0565 24.0034C13.2684 24.125 13.4284 24.3199 13.5064 24.5514L14.1164 26.3814C14.186 26.5884 14.3214 26.7669 14.502 26.8897C14.6825 27.0125 14.8983 27.0728 15.1164 27.0614H19.1164C19.326 27.062 19.5305 26.9966 19.701 26.8746C19.8715 26.7526 19.9993 26.58 20.0664 26.3814L20.6764 24.5514C20.7544 24.3199 20.9144 24.125 21.1263 24.0034C21.3381 23.8818 21.5872 23.842 21.8264 23.8914L23.7064 24.2714C23.9126 24.3143 24.127 24.2909 24.3191 24.2047C24.5113 24.1185 24.6713 23.9739 24.7764 23.7914L26.7764 20.3314C26.8826 20.1487 26.9281 19.9371 26.9066 19.7269C26.885 19.5167 26.7974 19.3188 26.6564 19.1614L25.3064 17.7214ZM23.8164 19.0614L24.6164 19.9614L23.3364 22.1814L22.1564 21.9414C21.4362 21.7942 20.687 21.9165 20.051 22.2852C19.415 22.6539 18.9365 23.2433 18.7064 23.9414L18.3264 25.0614H15.7664L15.4064 23.9214C15.1762 23.2233 14.6978 22.6339 14.0618 22.2652C13.4258 21.8965 12.6766 21.7742 11.9564 21.9214L10.7764 22.1614L9.47639 19.9514L10.2764 19.0514C10.7683 18.5014 11.0403 17.7894 11.0403 17.0514C11.0403 16.3135 10.7683 15.6014 10.2764 15.0514L9.47639 14.1514L10.7564 11.9514L11.9364 12.1914C12.6566 12.3386 13.4058 12.2163 14.0418 11.8476C14.6778 11.4789 15.1562 10.8896 15.3864 10.1914L15.7664 9.06142H18.3264L18.7064 10.2014C18.9365 10.8996 19.415 11.4889 20.051 11.8576C20.687 12.2263 21.4362 12.3486 22.1564 12.2014L23.3364 11.9614L24.6164 14.1814L23.8164 15.0814C23.33 15.6302 23.0614 16.3381 23.0614 17.0714C23.0614 17.8047 23.33 18.5127 23.8164 19.0614ZM17.0464 13.0614C16.2553 13.0614 15.4819 13.296 14.8241 13.7355C14.1663 14.1751 13.6536 14.7998 13.3509 15.5307C13.0481 16.2616 12.9689 17.0659 13.1232 17.8418C13.2776 18.6177 13.6586 19.3304 14.218 19.8898C14.7774 20.4493 15.4901 20.8302 16.266 20.9846C17.042 21.1389 17.8462 21.0597 18.5771 20.7569C19.308 20.4542 19.9327 19.9415 20.3723 19.2837C20.8118 18.6259 21.0464 17.8525 21.0464 17.0614C21.0464 16.0006 20.625 14.9831 19.8748 14.233C19.1247 13.4828 18.1073 13.0614 17.0464 13.0614ZM17.0464 19.0614C16.6508 19.0614 16.2641 18.9441 15.9352 18.7244C15.6064 18.5046 15.35 18.1922 15.1986 17.8268C15.0473 17.4613 15.0076 17.0592 15.0848 16.6712C15.162 16.2833 15.3525 15.9269 15.6322 15.6472C15.9119 15.3675 16.2682 15.177 16.6562 15.0998C17.0442 15.0227 17.4463 15.0623 17.8118 15.2137C18.1772 15.365 18.4896 15.6214 18.7093 15.9503C18.9291 16.2792 19.0464 16.6659 19.0464 17.0614C19.0464 17.5919 18.8357 18.1006 18.4606 18.4756C18.0855 18.8507 17.5768 19.0614 17.0464 19.0614Z" fill="#21CAC8"/>
<path d="M52.9068 21.0615H50.9438V17.0575H47.2648V21.0615H45.3018V11.7795H47.2648V15.4195H50.9438V11.7795H52.9068V21.0615ZM57.9983 13.8205C58.9516 13.8205 59.6796 14.0285 60.1823 14.4445C60.6936 14.8519 60.9493 15.4802 60.9493 16.3295V21.0615H59.5973L59.2203 20.0995H59.1683C58.9689 20.3509 58.7609 20.5589 58.5443 20.7235C58.3363 20.8882 58.0936 21.0052 57.8163 21.0745C57.5476 21.1525 57.2139 21.1915 56.8153 21.1915C56.3993 21.1915 56.0223 21.1135 55.6843 20.9575C55.3549 20.7929 55.0949 20.5459 54.9043 20.2165C54.7136 19.8785 54.6183 19.4539 54.6183 18.9425C54.6183 18.1885 54.8826 17.6339 55.4113 17.2785C55.9399 16.9145 56.7329 16.7152 57.7903 16.6805L59.0253 16.6415V16.3295C59.0253 15.9569 58.9256 15.6839 58.7263 15.5105C58.5356 15.3372 58.2669 15.2505 57.9203 15.2505C57.5736 15.2505 57.2356 15.3025 56.9063 15.4065C56.5769 15.5019 56.2476 15.6232 55.9183 15.7705L55.2813 14.4575C55.6626 14.2582 56.0829 14.1022 56.5423 13.9895C57.0103 13.8769 57.4956 13.8205 57.9983 13.8205ZM58.2713 17.7985C57.6473 17.8159 57.2139 17.9285 56.9713 18.1365C56.7286 18.3445 56.6073 18.6175 56.6073 18.9555C56.6073 19.2502 56.6939 19.4625 56.8673 19.5925C57.0406 19.7139 57.2659 19.7745 57.5433 19.7745C57.9593 19.7745 58.3103 19.6532 58.5963 19.4105C58.8823 19.1592 59.0253 18.8082 59.0253 18.3575V17.7725L58.2713 17.7985ZM65.818 21.1915C65.116 21.1915 64.518 21.0659 64.024 20.8145C63.53 20.5545 63.153 20.1559 62.893 19.6185C62.633 19.0812 62.503 18.3922 62.503 17.5515C62.503 16.6849 62.6503 15.9785 62.945 15.4325C63.2396 14.8865 63.647 14.4835 64.167 14.2235C64.6956 13.9635 65.3023 13.8335 65.987 13.8335C66.4723 13.8335 66.8926 13.8812 67.248 13.9765C67.612 14.0719 67.9283 14.1845 68.197 14.3145L67.625 15.8095C67.3216 15.6882 67.0356 15.5885 66.767 15.5105C66.507 15.4325 66.247 15.3935 65.987 15.3935C65.649 15.3935 65.3673 15.4759 65.142 15.6405C64.9166 15.7965 64.7476 16.0349 64.635 16.3555C64.531 16.6675 64.479 17.0619 64.479 17.5385C64.479 18.0065 64.5353 18.3965 64.648 18.7085C64.7693 19.0119 64.9426 19.2415 65.168 19.3975C65.3933 19.5449 65.6663 19.6185 65.987 19.6185C66.3943 19.6185 66.754 19.5665 67.066 19.4625C67.378 19.3499 67.6813 19.1982 67.976 19.0075V20.6585C67.6813 20.8492 67.3693 20.9835 67.04 21.0615C66.7193 21.1482 66.312 21.1915 65.818 21.1915ZM75.4857 15.4195H73.1587V21.0615H71.2217V15.4195H68.8947V13.9635H75.4857V15.4195ZM80.7473 13.8335C81.5446 13.8335 82.1903 14.1455 82.6843 14.7695C83.1783 15.3849 83.4252 16.2949 83.4252 17.4995C83.4252 18.3055 83.3083 18.9859 83.0743 19.5405C82.8403 20.0865 82.5196 20.4982 82.1123 20.7755C81.7049 21.0529 81.2326 21.1915 80.6953 21.1915C80.3573 21.1915 80.0626 21.1482 79.8113 21.0615C79.5686 20.9749 79.3606 20.8622 79.1873 20.7235C79.0139 20.5849 78.8623 20.4375 78.7323 20.2815H78.6283C78.6629 20.4462 78.6889 20.6195 78.7063 20.8015C78.7236 20.9749 78.7323 21.1482 78.7323 21.3215V24.1815H76.7953V13.9635H78.3683L78.6413 14.8865H78.7323C78.8623 14.6959 79.0183 14.5225 79.2003 14.3665C79.3823 14.2019 79.5989 14.0719 79.8503 13.9765C80.1103 13.8812 80.4093 13.8335 80.7473 13.8335ZM80.1233 15.3805C79.7853 15.3805 79.5166 15.4499 79.3173 15.5885C79.1179 15.7272 78.9706 15.9395 78.8753 16.2255C78.7886 16.5029 78.7409 16.8539 78.7323 17.2785V17.4865C78.7323 17.9459 78.7756 18.3359 78.8623 18.6565C78.9489 18.9685 79.0963 19.2069 79.3043 19.3715C79.5123 19.5362 79.7939 19.6185 80.1493 19.6185C80.4439 19.6185 80.6866 19.5362 80.8773 19.3715C81.0679 19.2069 81.2109 18.9642 81.3063 18.6435C81.4016 18.3229 81.4493 17.9329 81.4493 17.4735C81.4493 16.7802 81.3409 16.2602 81.1243 15.9135C80.9163 15.5582 80.5826 15.3805 80.1233 15.3805ZM91.4698 17.4995C91.4698 18.0889 91.3875 18.6132 91.2228 19.0725C91.0668 19.5319 90.8371 19.9219 90.5338 20.2425C90.2391 20.5545 89.8795 20.7929 89.4548 20.9575C89.0301 21.1135 88.5491 21.1915 88.0118 21.1915C87.5178 21.1915 87.0585 21.1135 86.6338 20.9575C86.2178 20.7929 85.8581 20.5545 85.5548 20.2425C85.2515 19.9219 85.0131 19.5319 84.8398 19.0725C84.6751 18.6132 84.5928 18.0889 84.5928 17.4995C84.5928 16.7109 84.7315 16.0479 85.0088 15.5105C85.2861 14.9645 85.6848 14.5485 86.2048 14.2625C86.7248 13.9765 87.3401 13.8335 88.0508 13.8335C88.7181 13.8335 89.3075 13.9765 89.8188 14.2625C90.3301 14.5485 90.7331 14.9645 91.0278 15.5105C91.3225 16.0479 91.4698 16.7109 91.4698 17.4995ZM86.5688 17.4995C86.5688 17.9675 86.6165 18.3619 86.7118 18.6825C86.8158 18.9945 86.9761 19.2329 87.1928 19.3975C87.4095 19.5535 87.6911 19.6315 88.0378 19.6315C88.3845 19.6315 88.6618 19.5535 88.8698 19.3975C89.0865 19.2329 89.2425 18.9945 89.3378 18.6825C89.4418 18.3619 89.4938 17.9675 89.4938 17.4995C89.4938 17.0315 89.4418 16.6415 89.3378 16.3295C89.2425 16.0175 89.0865 15.7835 88.8698 15.6275C88.6531 15.4715 88.3715 15.3935 88.0248 15.3935C87.5135 15.3935 87.1408 15.5712 86.9068 15.9265C86.6815 16.2732 86.5688 16.7975 86.5688 17.4995ZM99.8696 10.9085C99.8263 11.3592 99.7006 11.7579 99.4926 12.1045C99.2846 12.4425 98.9596 12.7069 98.5176 12.8975C98.0756 13.0882 97.482 13.1835 96.7366 13.1835C95.974 13.1835 95.376 13.0925 94.9426 12.9105C94.518 12.7199 94.2146 12.4555 94.0326 12.1175C93.8506 11.7795 93.7423 11.3765 93.7076 10.9085H95.4366C95.48 11.3852 95.6013 11.7015 95.8006 11.8575C96 12.0135 96.325 12.0915 96.7756 12.0915C97.1483 12.0915 97.4516 12.0092 97.6856 11.8445C97.9283 11.6712 98.0713 11.3592 98.1146 10.9085H99.8696ZM94.9426 16.7715C94.9426 16.9189 94.934 17.1009 94.9166 17.3175C94.908 17.5342 94.895 17.7552 94.8776 17.9805C94.869 18.2059 94.856 18.4052 94.8386 18.5785C94.8213 18.7519 94.8083 18.8732 94.7996 18.9425L98.0756 13.9635H100.403V21.0615H98.5306V18.2275C98.5306 17.9935 98.5393 17.7379 98.5566 17.4605C98.574 17.1745 98.5913 16.9102 98.6086 16.6675C98.6346 16.4162 98.652 16.2255 98.6606 16.0955L95.3976 21.0615H93.0706V13.9635H94.9426V16.7715ZM107.081 13.9635H109.213L106.405 17.3695L109.46 21.0615H107.263L104.364 17.4605V21.0615H102.427V13.9635H104.364V17.4085L107.081 13.9635ZM112.348 16.7715C112.348 16.9189 112.339 17.1009 112.322 17.3175C112.313 17.5342 112.3 17.7552 112.283 17.9805C112.274 18.2059 112.261 18.4052 112.244 18.5785C112.227 18.7519 112.214 18.8732 112.205 18.9425L115.481 13.9635H117.808V21.0615H115.936V18.2275C115.936 17.9935 115.945 17.7379 115.962 17.4605C115.979 17.1745 115.997 16.9102 116.014 16.6675C116.04 16.4162 116.057 16.2255 116.066 16.0955L112.803 21.0615H110.476V13.9635H112.348V16.7715Z" fill="#4F4F4F"/>
</svg>
